<?xml version="1.0" encoding="UTF-8" standalone="no"?>
<svg
   xmlns:dc="http://purl.org/dc/elements/1.1/"
   xmlns:cc="http://creativecommons.org/ns#"
   xmlns:rdf="http://www.w3.org/1999/02/22-rdf-syntax-ns#"
   xmlns:svg="http://www.w3.org/2000/svg"
   xmlns="http://www.w3.org/2000/svg"
   viewBox="0 0 1000 666.66669"
   height="666.66669"
   width="1000"
   xml:space="preserve"
   id="svg2"
   version="1.1"><metadata
     id="metadata8"><rdf:RDF><cc:Work
         rdf:about=""><dc:format>image/svg+xml</dc:format><dc:type
           rdf:resource="http://purl.org/dc/dcmitype/StillImage" /></cc:Work></rdf:RDF></metadata><defs
     id="defs6"><clipPath
       id="clipPath68"
       clipPathUnits="userSpaceOnUse"><path
         id="path66"
         d="m 4198.23,1782.13 h 279.258 v 654.461 H 4198.23 Z" /></clipPath><clipPath
       id="clipPath116"
       clipPathUnits="userSpaceOnUse"><path
         id="path114"
         d="m 5651.88,1782.13 h 169.16 v 396.48 h -169.16 z" /></clipPath><clipPath
       id="clipPath164"
       clipPathUnits="userSpaceOnUse"><path
         id="path162"
         d="m 2822.58,1782.13 h 169.18 v 396.48 h -169.18 z" /></clipPath><clipPath
       id="clipPath212"
       clipPathUnits="userSpaceOnUse"><path
         id="path210"
         d="m 6071.26,1450.84 h 108.699 v 254.75 H 6071.26 Z" /></clipPath><clipPath
       id="clipPath262"
       clipPathUnits="userSpaceOnUse"><path
         id="path260"
         d="m 2231.9,1481 h 104.781 v 245.539 H 2231.9 Z" /></clipPath><clipPath
       id="clipPath310"
       clipPathUnits="userSpaceOnUse"><path
         id="path308"
         d="m 4930.88,1231.26 h 169.172 v 396.477 H 4930.88 Z" /></clipPath><clipPath
       id="clipPath358"
       clipPathUnits="userSpaceOnUse"><path
         id="path356"
         d="m 3361.07,1223.22 h 169.168 v 396.492 H 3361.07 Z" /></clipPath></defs><g
     transform="matrix(1.3333333,0,0,-1.3333333,0,666.66667)"
     id="g10"><g
       transform="scale(0.1)"
       id="g12"><path
         id="path14"
         style="fill:#ffffff;fill-opacity:1;fill-rule:nonzero;stroke:none"
         d="M 7500,0 H 9.9375 V 4996.99 H 7500 V 0" /><path
         id="path16"
         style="fill:#bae9f8;fill-opacity:1;fill-rule:nonzero;stroke:none"
         d="M 7500,0 H 9.9375 V 4996.99 H 7500 V 0 M 1069.29,568.98 c 114.45,-6.398 245.32,-10.031 384.31,-10.031 449.33,0 813.6,37.93 813.6,84.731 0,29.851 -148.2,47.961 -372.17,57.16 -23.44,10.699 -50.27,22.031 -78.88,33.762 -38.37,15.73 -65.97,48.05 -85.24,80.949 0.23,27.847 1.5,189.099 2.15,371.599 485.19,-55.79 1175.66,-88.99 1958.42,-88.99 141.85,-0.01 286.46,1.08 433.72,3.32 1722.07,26.22 3115.75,200.16 3112.89,388.52 -0.84,54.91 -120.29,104.98 -331.74,147.72 -68.04,13.75 -83.66,99.61 -27.36,139.88 14.18,10.13 21.41,20.35 21.25,30.6 -0.9,59.11 -246.85,109.57 -654.76,145.5 l -93.13,92.17 -81.99,-4.81 v 197.6 h 1030.1 c 2.71,8.06 4.29,16.41 4.29,25.03 0,60.95 -71.81,110.35 -160.39,110.35 -18.62,0 -36.42,-2.29 -53.03,-6.31 -35.69,46.44 -106.51,78.12 -188.17,78.12 -22.94,0 -44.98,-2.57 -65.67,-7.19 -32.88,107.2 -171.13,187.68 -336.75,187.68 -122.05,0 -229.19,-43.74 -290.3,-109.64 -16.76,5.84 -34.48,10.56 -52.98,13.97 l -179.37,177.55 -198.8,-11.66 -359.05,-377.8 16.72,-60.87 55.93,14.06 v -268.87 c -27.1,0.7 -54.37,1.36 -81.94,1.99 l -153.86,152.29 -168.07,-9.85 v 429.58 l 142.98,35.58 33.4,46.03 h -0.01 l -658.82,652.11 -328.15,-19.24 -592.66,-623.63 27.6,-100.48 92.31,23.2 v -558.52 l -118.39,117.19 -198.8,-11.66 -47.41,-49.89 v 175.95 l 86.61,21.55 20.24,27.88 -137.36,135.96 h 154.81 c 2.38,7.79 3.77,15.87 3.77,24.21 0,58.94 -62.88,106.72 -140.44,106.72 -16.3,0 -31.88,-2.21 -46.43,-6.09 -31.24,44.91 -93.25,75.54 -164.75,75.54 -3.09,0 -6.17,-0.06 -9.22,-0.17 l -59.51,58.89 -20.68,-1.21 c -51.61,69.85 -150,117.06 -262.93,117.06 -106.86,0 -200.66,-42.3 -254.17,-106.03 -32.38,12.46 -68.87,19.63 -107.65,19.63 -131.89,0 -238.81,-81.24 -238.81,-181.47 l 0.1,-1.46 c -10.98,2.71 -22.68,4.21 -34.85,4.21 -62.46,0 -113.09,-38.48 -113.09,-85.94 0,-8.29 1.63,-16.29 4.52,-23.89 h 593.62 l -123.89,-130.36 16.72,-60.87 55.92,14.06 v -331.92 c -11.8,-0.89 -23.47,-1.78 -35.13,-2.68 l -118.4,117.19 -123.12,-7.23 -136.84,-143.99 c -126.56,-13.22 -240.45,-27.29 -339.85,-42.04 -16.2,82.37 -40.31,181.27 -66.64,281.01 5.28,5.07 9.95,10.96 13.79,17.62 l 333.43,577.52 c 19.75,11.95 33.63,26.52 38.09,31.73 10.25,11.96 -14.13,23.84 8.67,37.7 24.35,14.8 34.03,33.23 23.93,33.23 -0.97,0 -2.11,-0.17 -3.44,-0.53 -3.23,-0.86 -6.45,-1.67 -9.67,-2.41 l 105.74,183.16 c 0.79,0.57 1.43,1.25 1.89,2.04 0.45,0.8 0.73,1.69 0.83,2.66 l 0.5,0.87 c 0,0 -0.16,-0.04 -0.47,-0.09 0.04,8.06 -10.97,21.23 -28.59,35.01 l 59.03,102.24 c -25.48,9.78 -49.27,23.49 -70.5,40.63 l -0.34,0.27 -59.81,-103.6 c -10.75,3.71 -20.05,5.7 -26.88,5.7 -5.45,0 -9.32,-1.26 -11.11,-3.92 0.04,0.29 0.09,0.51 0.12,0.63 0.02,0.09 0.03,0.13 0.03,0.13 v 0 0.01 l -104.83,-181.51 c 0.19,3.11 -1,4.98 -4.63,5.14 -1.1,0.05 -2.17,0.07 -3.23,0.07 -36.19,0 -43.84,-27.58 -77.03,-34.22 -2.63,-0.53 -5.54,-0.77 -8.67,-0.77 -1.51,0 -3.07,0.06 -4.68,0.16 3.97,4.99 8.32,9.52 13.07,13.47 v 0 0 l -315.53,146.1 -15.13,141.36 c 62.25,27.07 78.14,62.07 91.1,106.25 1.31,4.47 1.9,9.59 1.89,15.23 0,46.83 -40.35,130.12 -40.31,188.01 0.02,23.35 6.61,42.57 25.07,53.61 0.11,0.06 0.22,0.13 0.33,0.19 0.01,0.01 0.03,0.03 0.05,0.03 0.1,0.06 0.2,0.12 0.3,0.18 0.01,0.01 0.02,0.02 0.03,0.02 0.22,0.14 0.45,0.28 0.67,0.41 0.02,0.01 0.02,0.02 0.04,0.02 0.69,0.43 1.38,0.86 2.07,1.3 h 0.01 c 0.23,0.15 0.46,0.3 0.68,0.44 l 0.02,0.01 c 0.11,0.08 0.22,0.15 0.33,0.22 h 0.01 c 0.12,0.08 0.23,0.15 0.34,0.22 0.01,0.01 0.02,0.02 0.02,0.02 0.1,0.06 0.2,0.12 0.29,0.19 0.03,0.02 0.07,0.04 0.09,0.06 0.07,0.04 0.14,0.09 0.21,0.13 0.05,0.03 0.08,0.06 0.12,0.08 0.09,0.06 0.19,0.12 0.28,0.18 0.05,0.04 0.09,0.07 0.14,0.1 0.05,0.03 0.1,0.07 0.15,0.1 0.06,0.04 0.13,0.08 0.18,0.12 0.02,0.02 0.05,0.03 0.07,0.05 10.28,6.86 20.17,15.2 29.6,24.78 53.18,27.44 91.07,92.12 91.07,92.12 0,0 3.89,-0.94 9.46,-0.94 7.06,0 16.82,1.5 24.83,8.29 10.73,9.09 -0.84,9.01 -8.42,33.78 -10.62,34.7 25.66,80.32 26.64,138.6 42.73,4.8 85.65,22.18 102.46,49.38 v 0 c 0.07,0.11 0.14,0.22 0.21,0.34 0,0.01 0.01,0.02 0.01,0.03 0.07,0.1 0.13,0.2 0.19,0.31 0.01,0.01 0.02,0.02 0.03,0.04 0.06,0.1 0.12,0.2 0.18,0.3 0.01,0.02 0.02,0.03 0.03,0.04 0.06,0.11 0.12,0.21 0.18,0.31 0.01,0.01 0.02,0.03 0.03,0.04 0.06,0.11 0.13,0.22 0.19,0.33 0,0 0,0 0.01,0.01 0.07,0.11 0.13,0.23 0.2,0.35 v 0 c 0.14,0.23 0.28,0.47 0.41,0.7 l 0.01,0.01 c 31.51,54.59 21.82,145.42 -69.65,145.42 -10.41,0 -21.87,-1.17 -34.47,-3.71 -7.91,-1.6 -15.58,-2.32 -23.04,-2.33 -36.73,0 -68.87,17.51 -104.29,35.02 -11.65,5.76 -23.65,11.52 -36.29,16.66 l -2.66,5.02 c 0,0 -42.8,19.85 -99.69,19.85 -41.02,0 -89.36,-10.31 -134.29,-45.82 -0.02,-0.02 -0.05,-0.04 -0.07,-0.06 -0.09,-0.07 -0.17,-0.13 -0.27,-0.21 -0.05,-0.04 -0.1,-0.08 -0.15,-0.12 -0.06,-0.04 -0.11,-0.09 -0.17,-0.13 -0.23,-0.19 -0.46,-0.38 -0.69,-0.56 -0.03,-0.02 -0.05,-0.03 -0.08,-0.06 -2.04,-1.63 -4.07,-3.33 -6.1,-5.08 -0.01,-0.01 -0.03,-0.03 -0.05,-0.04 -0.16,-0.14 -0.31,-0.27 -0.47,-0.41 -0.02,-0.01 -0.04,-0.03 -0.05,-0.05 -0.06,-0.05 -0.12,-0.1 -0.18,-0.15 -0.06,-0.05 -0.12,-0.1 -0.18,-0.15 -0.04,-0.04 -0.1,-0.09 -0.14,-0.13 -0.11,-0.09 -0.23,-0.19 -0.33,-0.29 -109.02,-95.52 -104.85,-172.71 -215.46,-187.88 -19.11,-2.62 -39.17,-3.43 -59.61,-3.43 -16.54,0 -33.34,0.53 -50.08,1.06 -16.74,0.53 -33.435,1.06 -49.763,1.06 -64.016,0 -122.579,-8.14 -157.477,-56.33 -63.719,-87.99 -36.41,-163.15 -209.355,-198.39 -157.235,-32.04 -179.942,-304.91 -79.336,-433.43 10.046,-12.83 21.328,-24.23 33.828,-33.8 v 0 c 116.929,-89.56 207.293,11.13 285.203,-135.39 19.898,-37.42 55.277,-64.54 97.348,-80.75 -26.583,-210.43 -34.274,-441.31 -34.274,-441.31 0,0 12.016,-5.25 37.785,-13.16 -12.644,-53.06 -17.094,-111.94 -17.097,-170.63 -0.004,-110.42 15.734,-220.13 22.261,-288.92 1.422,-15 2.114,-29.45 2.11,-43.46 -0.024,-99.89 -35.446,-177.74 -94.629,-274.57 -113.008,-184.87 -125.309,-571.56 -125.297,-731.54 0.004,-44.671 0.969,-71.671 0.969,-71.671 l 3.683,-1.598 C 704.773,856.66 674.105,801.469 674.098,773.512 c 0,-3.301 0.425,-6.231 1.328,-8.711 8.211,-22.672 44.406,-52.149 91.726,-81.461 C 686.656,673.48 640,660.43 640,643.68 c 0,-29.731 146.992,-55.879 369.45,-71.008 11.99,-3.352 22.59,-5.703 31.31,-6.863 1.41,-0.188 2.78,-0.34 4.09,-0.457 2.4,-0.211 4.64,-0.321 6.76,-0.321 7.65,0 13.48,1.391 17.68,3.949 m 1112.43,2601.09 c 11.42,-12.29 24.33,-22.74 38.8,-31.08 26.97,-15.58 57.52,-23.01 90.54,-23.01 22.37,-0.01 45.88,3.4 70.22,10 35.13,8.44 71.47,24.42 108.54,47.19 125.99,73.83 260.31,214.89 366.07,398.07 191.1,330.99 216.46,671.81 56.65,764.07 -12.51,7.23 -25.79,12.93 -39.73,17.04 l -16.95,10.48 c -2.89,1.79 -5.9,2.58 -8.79,2.58 -4.99,0 -9.63,-2.35 -12.76,-5.99 -5.33,0.43 -10.73,0.65 -16.2,0.65 -2.87,0 -5.76,-0.07 -8.66,-0.18 -17.69,6.03 -36.64,8.95 -56.61,8.95 -155.47,0 -372.22,-177.36 -527.82,-446.87 -157.6,-272.97 -201.97,-552.99 -120.04,-685.65 -3.45,-7.26 -1.94,-16.79 6.64,-21.93 l 20.99,-12.57 c 8.96,-8.59 18.83,-16.05 29.59,-22.27 6.3,-3.63 12.82,-6.79 19.52,-9.48 M 1007.75,700.66 c -12.805,13.75 -26.586,27.219 -40.676,39.672 -29.164,25.777 -43.312,57.477 -49.176,88.406 l 3.551,-1.539 195.301,478.141 c 71.76,-27.01 175.54,-52.06 306.78,-74.75 27.12,-153.67 65.37,-298.988 87.43,-377.399 1.11,-3.972 2.19,-7.769 3.22,-11.39 v 0 c 8.8,-30.922 14.31,-48.77 14.31,-48.77 l 9.85,0.891 c -2.88,-32.262 -6.18,-60.781 -7.72,-85.68 -25.35,0.117 -51.05,0.18 -77.02,0.18 -164.61,0 -317.81,-2.41 -445.85,-7.762 m 196.62,819.21 72.13,176.58 c 5.09,-3.97 11.34,-7.9 18.71,-11.77 63.84,-33.54 54.91,-125.9 -15.07,-143.79 -27.1,-6.93 -52.38,-13.94 -75.77,-21.02 m 85.76,238.96 24.75,159.22 c 21.48,-44.87 43.37,-88.68 61.47,-124.28 -37.61,-11.48 -66.59,-23.15 -86.22,-34.94 m 295.44,593.84 c -14.76,51.55 -28.93,99.86 -41.54,142.22 17.67,6.67 27.66,11.15 27.66,11.15 l -8.93,83.51 c 7.53,-1.56 11.64,-2.31 11.64,-2.31 v 0 0 l -11.85,173.31 c 113.57,-13.45 211.37,-17.43 211.37,-17.43 0,0 0.18,12.91 2.35,31.79 12.87,-3.84 28.29,-8.73 44.74,-14.59 l -235.44,-407.65" /><path
         id="path18"
         style="fill:#ffffff;fill-opacity:1;fill-rule:nonzero;stroke:none"
         d="m 5451.05,2238.66 c -3.31,7.85 -5.17,16.12 -5.17,24.7 0,49.07 57.83,88.86 129.16,88.86 13.91,0 27.26,-1.56 39.81,-4.36 l -0.11,1.52 c 0,103.63 122.11,187.63 272.75,187.63 44.29,0 85.97,-7.42 122.95,-20.31 61.11,65.9 168.25,109.64 290.3,109.64 165.62,0 303.87,-80.48 336.75,-187.68 20.69,4.62 42.73,7.19 65.67,7.19 81.66,0 152.48,-31.68 188.17,-78.12 16.61,4.02 34.41,6.31 53.03,6.31 88.58,0 160.39,-49.4 160.39,-110.35 0,-8.62 -1.58,-16.97 -4.29,-25.03 H 5451.05" /><path
         id="path20"
         style="fill:#ffffff;fill-opacity:1;fill-rule:nonzero;stroke:none"
         d="m 1921.23,2449.12 c -2.89,7.6 -4.52,15.6 -4.52,23.89 0,47.46 50.63,85.94 113.09,85.94 12.17,0 23.87,-1.5 34.85,-4.21 l -0.1,1.46 c 0,100.23 106.92,181.47 238.81,181.47 38.78,0 75.27,-7.17 107.65,-19.63 53.51,63.73 147.31,106.03 254.17,106.03 145.01,0 266.06,-77.83 294.84,-181.52 18.12,4.47 37.42,6.95 57.5,6.95 71.5,0 133.51,-30.63 164.75,-75.54 14.55,3.88 30.13,6.09 46.43,6.09 77.56,0 140.44,-47.78 140.44,-106.72 0,-8.34 -1.39,-16.42 -3.77,-24.21 H 1921.23" /><path
         id="path22"
         style="fill:#84d5f6;fill-opacity:1;fill-rule:nonzero;stroke:none"
         d="m 3691.48,1098.16 c -782.76,0 -1473.23,33.2 -1958.42,88.99 0.24,64.82 0.39,132.31 0.39,197.47 v 0 c 0,133.29 -0.65,256.76 -2.57,327.4 -0.99,36.43 -8.64,88.31 -20.62,149.26 99.4,14.75 213.29,28.82 339.85,42.04 l -85.52,-89.98 10.36,-37.7 34.63,8.71 v 0 -303.24 h 383.65 v 12.14 -12.14 l 97.85,31.12 v 11.74 l 204.99,64.36 -204.99,40.67 v 150.26 l 12.32,3.06 h 447.38 l -21.34,-22.46 16.72,-60.86 55.92,14.05 v 0 -489.62 h 619.48 l 432.16,135.67 -274.16,54.4 v 291.32 l 86.61,21.56 20.24,27.88 -28.5,28.2 h 655.18 l -13.84,-14.56 16.73,-60.87 55.91,14.05 v -489.61 h 619.48 v 6.5 -6.5 l 158,50.22 v 5.89 l 260.69,81.84 -260.69,51.72 v 291.72 l 86.61,21.55 20.23,27.88 -20.23,20.03 h 361.6 l 7.1,-25.8 35.92,9.03 v -314.58 h 378.37 l -2.26,-4.97 15.81,4.97 h 6.11 v 1.92 -1.92 l 101.52,32.26 v 1.53 l 277.29,87.06 -277.29,55.01 v 133.44 l 55.65,13.85 13,17.92 -163.32,161.66 c 407.91,-35.93 653.86,-86.39 654.76,-145.5 0.16,-10.25 -7.07,-20.47 -21.25,-30.6 -56.3,-40.27 -40.68,-126.13 27.36,-139.88 211.45,-42.74 330.9,-92.81 331.74,-147.72 2.86,-188.36 -1390.82,-362.3 -3112.89,-388.52 -147.26,-2.24 -291.87,-3.33 -433.72,-3.32 m -2267.95,132.43 c -131.24,22.69 -235.02,47.74 -306.78,74.75 l 87.62,214.53 c 23.39,7.08 48.67,14.09 75.77,21.02 69.98,17.89 78.91,110.25 15.07,143.79 -7.37,3.87 -13.62,7.8 -18.71,11.77 l 6.36,15.57 7.27,46.81 c 19.63,11.79 48.61,23.46 86.22,34.94 24.64,-48.48 42.27,-81.75 42.27,-81.75 -0.04,-0.12 -0.09,-0.24 -0.14,-0.36 v -0.01 c -0.44,-1.09 -0.87,-2.18 -1.29,-3.29 v 0 c -0.7,-1.84 -1.4,-3.72 -2.07,-5.6 v -0.01 c -16.22,-45.6 -22.86,-104.43 -22.87,-170.25 v 0 c -0.01,-92.67 13.15,-199.15 31.28,-301.91 m 1040.07,671.99 -35.13,34.77 c 11.66,0.9 23.33,1.79 35.13,2.68 v -37.45 m 2829.29,21.38 -81.94,81.11 c 27.57,-0.63 54.84,-1.29 81.94,-1.99 v -79.12" /><path
         id="path24"
         style="fill:#67baea;fill-opacity:1;fill-rule:nonzero;stroke:none"
         d="m 3621.56,1223.43 158,50.22 v 139.85 l 274.16,-54.4 -432.16,-135.67" /><path
         id="path26"
         style="fill:#67baea;fill-opacity:1;fill-rule:nonzero;stroke:none"
         d="m 5349.37,1287.58 v 133.56 l 260.69,-51.72 -260.69,-81.84" /><path
         id="path28"
         style="fill:#67baea;fill-opacity:1;fill-rule:nonzero;stroke:none"
         d="m 6216.71,1446 2.26,4.97 h 13.55 l -15.81,-4.97 m 123.44,38.76 v 142.07 l 277.29,-55.01 -277.29,-87.06" /><path
         id="path30"
         style="fill:#67baea;fill-opacity:1;fill-rule:nonzero;stroke:none"
         d="M 2491.08,1523.97 V 1629 l 204.99,-40.67 -204.99,-64.36" /><path
         id="path32"
         style="fill:#f03762;fill-opacity:1;fill-rule:nonzero;stroke:none"
         d="m 3505.94,2620.72 7.42,-53.26 179.88,45.21 -52.2,120.12 -135.1,-112.07" /><path
         id="path34"
         style="fill:#f03762;fill-opacity:1;fill-rule:nonzero;stroke:none"
         d="m 4095.96,3258.45 -490.29,-490.29 v -985.7 h 1022.55 v 925.76 l -532.26,550.23" /><path
         id="path36"
         style="fill:#f03762;fill-opacity:1;fill-rule:nonzero;stroke:none"
         d="m 4889.02,2732.79 h -260.8 v -950.33 l 260.8,82.9 v 867.43" /><path
         id="path38"
         style="fill:#ef2b50;fill-opacity:1;fill-rule:nonzero;stroke:none"
         d="m 4628.22,1903.61 v 720.46 l 2.49,-2.68 -2.49,-69.76 58.38,9.62 26.06,-28.05 176.36,43.89 v -429.58 l -30.73,-1.81 -230.07,-242.09" /><path
         id="path40"
         style="fill:#f03762;fill-opacity:1;fill-rule:nonzero;stroke:none"
         d="m 4372.26,3245.54 -293.84,46.03 -592.66,-623.63 27.6,-100.48 647.94,663.01 210.96,15.07" /><path
         id="path42"
         style="fill:#ee2243;fill-opacity:1;fill-rule:nonzero;stroke:none"
         d="m 4628.22,2551.63 2.49,69.76 55.89,-60.14 -58.38,-9.62" /><path
         id="path44"
         style="fill:#ef2b50;fill-opacity:1;fill-rule:nonzero;stroke:none"
         d="m 3605.67,2590.66 -6.08,53.08 6.08,6.78 v -59.86" /><path
         id="path46"
         style="fill:#ef2b50;fill-opacity:1;fill-rule:nonzero;stroke:none"
         d="m 4628.22,2551.63 -529.7,575.72 -492.85,-536.69 v 59.86 l 125.06,139.37 381.09,389.94 516.4,-555.76 v -72.44" /><path
         id="path48"
         style="fill:#ef2b50;fill-opacity:1;fill-rule:nonzero;stroke:none"
         d="m 3730.73,2789.89 365.23,407 1.28,-3.91 -0.05,2.6 14.63,-15.75 -381.09,-389.94" /><path
         id="path50"
         style="fill:#f03762;fill-opacity:1;fill-rule:nonzero;stroke:none"
         d="m 4810.92,2708.22 -39.36,-95.55 -675.6,675.26 -28.11,-60.78 644.81,-693.95 319.34,79.47 33.4,46.03 -254.48,49.52" /><path
         id="path52"
         style="fill:#f03762;fill-opacity:1;fill-rule:nonzero;stroke:none"
         d="m 4078.42,3291.57 656.3,-706.54 330.67,73.67 -658.82,652.11 -328.15,-19.24" /><path
         id="path54"
         style="fill:#ef3058;fill-opacity:1;fill-rule:nonzero;stroke:none"
         d="m 4712.66,2533.2 27.58,51.83 325.15,73.67 -33.39,-46.03 -319.34,-79.47" /><path
         id="path56"
         style="fill:#f4f4f4;fill-opacity:1;fill-rule:nonzero;stroke:none"
         d="m 4053.72,2105.39 h -317.48 v 317.49 h 317.48 v -317.49" /><path
         id="path58"
         style="fill:#f03762;fill-opacity:1;fill-rule:nonzero;stroke:none"
         d="m 3926.96,2033.74 h -60.78 v 444.5 h 60.78 v -444.5" /><path
         id="path60"
         style="fill:#f03762;fill-opacity:1;fill-rule:nonzero;stroke:none"
         d="m 4098.53,2230.17 h -405.26 v 54.82 h 405.26 v -54.82" /><g
         id="g62"><g
           clip-path="url(#clipPath68)"
           id="g64"><path
             id="path70"
             style="fill:#f4f4f4;fill-opacity:1;fill-rule:nonzero;stroke:none"
             d="m 4477.49,1782.13 h -279.26 v 654.46 h 279.26 v -654.46" /><path
             id="path72"
             style="fill:#f03762;fill-opacity:1;fill-rule:nonzero;stroke:none"
             d="m 4381.5,1778.7 h -85.42 v 683.05 h 85.42 V 1778.7" /><path
             id="path74"
             style="fill:#f03762;fill-opacity:1;fill-rule:nonzero;stroke:none"
             d="m 4499.69,2069.6 h -318.41 v 86.8 h 318.41 v -86.8" /><path
             id="path76"
             style="fill:#f03762;fill-opacity:1;fill-rule:nonzero;stroke:none"
             d="m 4499.69,2264.73 h -318.41 v 86.79 h 318.41 v -86.79" /><path
             id="path78"
             style="fill:#f03762;fill-opacity:1;fill-rule:nonzero;stroke:none"
             d="m 4499.69,1873.09 h -318.41 v 86.79 h 318.41 v -86.79" /></g></g><path
         id="path80"
         style="fill:#52afe6;fill-opacity:1;fill-rule:nonzero;stroke:none"
         d="m 5232.47,2290.16 4.49,-32.27 108.98,27.39 -31.62,72.78 -81.85,-67.9" /><path
         id="path82"
         style="fill:#52afe6;fill-opacity:1;fill-rule:nonzero;stroke:none"
         d="m 5589.91,2676.5 -297.02,-297.02 v -597.16 h 619.47 v 560.85 l -322.45,333.33" /><path
         id="path84"
         style="fill:#52afe6;fill-opacity:1;fill-rule:nonzero;stroke:none"
         d="m 6070.36,2358.06 h -158 v -575.74 l 158,50.23 v 525.51" /><path
         id="path86"
         style="fill:#4d99d9;fill-opacity:1;fill-rule:nonzero;stroke:none"
         d="m 5912.36,1920.26 v 371.93 l 1.51,-1.63 -1.51,-42.26 35.37,5.83 15.79,-16.99 106.84,26.59 v -25.07 -197.6 l -45.74,-2.68 -112.26,-118.12" /><path
         id="path88"
         style="fill:#52afe6;fill-opacity:1;fill-rule:nonzero;stroke:none"
         d="m 5757.29,2668.68 -178,27.88 -359.05,-377.8 16.72,-60.87 392.53,401.66 127.8,9.13" /><path
         id="path90"
         style="fill:#4887cf;fill-opacity:1;fill-rule:nonzero;stroke:none"
         d="m 5912.36,2248.3 1.51,42.26 33.86,-36.43 -35.37,-5.83" /><path
         id="path92"
         style="fill:#4d99d9;fill-opacity:1;fill-rule:nonzero;stroke:none"
         d="m 5292.89,2271.95 -3.68,32.16 3.68,4.1 v -36.26" /><path
         id="path94"
         style="fill:#4d99d9;fill-opacity:1;fill-rule:nonzero;stroke:none"
         d="m 5912.36,2248.3 -320.89,348.79 -298.58,-325.14 v 36.26 l 75.77,84.45 230.85,236.22 312.85,-336.69 v -43.89" /><path
         id="path96"
         style="fill:#4d99d9;fill-opacity:1;fill-rule:nonzero;stroke:none"
         d="m 5368.66,2392.66 221.25,246.55 v 0 l 0.77,-2.37 -0.03,1.57 8.86,-9.53 -230.85,-236.22" /><path
         id="path98"
         style="fill:#52afe6;fill-opacity:1;fill-rule:nonzero;stroke:none"
         d="m 6023.05,2343.17 -23.85,-57.89 -409.29,409.08 -17.03,-36.82 390.64,-420.4 193.45,48.14 20.24,27.88 -154.16,30.01" /><path
         id="path100"
         style="fill:#52afe6;fill-opacity:1;fill-rule:nonzero;stroke:none"
         d="m 5579.29,2696.56 397.59,-428.02 200.33,44.62 -399.12,395.06 -198.8,-11.66" /><path
         id="path102"
         style="fill:#50a5e0;fill-opacity:1;fill-rule:nonzero;stroke:none"
         d="m 5963.52,2237.14 16.7,31.4 196.99,44.62 -20.24,-27.88 -193.45,-48.14" /><path
         id="path104"
         style="fill:#f4f4f4;fill-opacity:1;fill-rule:nonzero;stroke:none"
         d="m 5564.33,1977.97 h -192.35 v 192.33 h 192.35 v -192.33" /><path
         id="path106"
         style="fill:#52afe6;fill-opacity:1;fill-rule:nonzero;stroke:none"
         d="m 5487.54,1934.56 h -36.83 v 269.28 h 36.83 v -269.28" /><path
         id="path108"
         style="fill:#52afe6;fill-opacity:1;fill-rule:nonzero;stroke:none"
         d="m 5591.46,2053.55 h -245.5 v 33.22 h 245.5 v -33.22" /><g
         id="g110"><g
           clip-path="url(#clipPath116)"
           id="g112"><path
             id="path118"
             style="fill:#f4f4f4;fill-opacity:1;fill-rule:nonzero;stroke:none"
             d="m 5821.04,1782.13 h -169.16 v 396.48 h 169.16 v -396.48" /><path
             id="path120"
             style="fill:#52afe6;fill-opacity:1;fill-rule:nonzero;stroke:none"
             d="m 5762.9,1780.06 h -51.75 v 413.79 h 51.75 v -413.79" /><path
             id="path122"
             style="fill:#52afe6;fill-opacity:1;fill-rule:nonzero;stroke:none"
             d="m 5834.5,1956.28 h -192.9 v 52.59 h 192.9 v -52.59" /><path
             id="path124"
             style="fill:#52afe6;fill-opacity:1;fill-rule:nonzero;stroke:none"
             d="m 5834.5,2074.49 h -192.9 v 52.58 h 192.9 v -52.58" /><path
             id="path126"
             style="fill:#52afe6;fill-opacity:1;fill-rule:nonzero;stroke:none"
             d="m 5834.5,1837.24 h -192.9 v 52.57 h 192.9 v -52.57" /></g></g><path
         id="path128"
         style="fill:#52afe6;fill-opacity:1;fill-rule:nonzero;stroke:none"
         d="m 2403.18,2290.16 4.5,-32.27 108.97,27.39 -31.62,72.78 -81.85,-67.9" /><path
         id="path130"
         style="fill:#52afe6;fill-opacity:1;fill-rule:nonzero;stroke:none"
         d="M 2760.62,2676.5 2463.6,2379.48 v -597.16 h 619.48 v 560.85 l -322.46,333.33" /><path
         id="path132"
         style="fill:#52afe6;fill-opacity:1;fill-rule:nonzero;stroke:none"
         d="m 3241.07,2358.06 h -157.99 v -575.74 l 157.99,50.23 v 525.51" /><path
         id="path134"
         style="fill:#4d99d9;fill-opacity:1;fill-rule:nonzero;stroke:none"
         d="m 3083.08,1921.53 v 370.66 l 1.5,-1.62 -1.5,-42.27 35.36,5.83 15.79,-16.99 106.84,26.59 v -175.95 l -157.99,-166.25" /><path
         id="path136"
         style="fill:#52afe6;fill-opacity:1;fill-rule:nonzero;stroke:none"
         d="m 2928.01,2668.68 -178.01,27.88 -359.04,-377.8 16.72,-60.87 392.53,401.66 127.8,9.13" /><path
         id="path138"
         style="fill:#4887cf;fill-opacity:1;fill-rule:nonzero;stroke:none"
         d="m 3083.08,2248.3 1.5,42.27 33.86,-36.44 -35.36,-5.83" /><path
         id="path140"
         style="fill:#4d99d9;fill-opacity:1;fill-rule:nonzero;stroke:none"
         d="m 2463.6,2271.95 -3.68,32.16 3.68,4.1 v -36.26" /><path
         id="path142"
         style="fill:#4d99d9;fill-opacity:1;fill-rule:nonzero;stroke:none"
         d="m 3083.08,2248.3 -320.9,348.79 -298.58,-325.14 v 36.26 l 75.68,84.34 230.95,236.33 312.85,-336.69 v -43.89" /><path
         id="path144"
         style="fill:#4d99d9;fill-opacity:1;fill-rule:nonzero;stroke:none"
         d="m 2539.28,2392.55 221.34,246.66 h 0.01 l 0.77,-2.37 -0.03,1.57 8.86,-9.53 -230.95,-236.33" /><path
         id="path146"
         style="fill:#52afe6;fill-opacity:1;fill-rule:nonzero;stroke:none"
         d="m 3193.76,2343.17 -23.85,-57.89 -409.29,409.08 -17.03,-36.82 390.64,-420.4 193.45,48.14 20.24,27.88 -154.16,30.01" /><path
         id="path148"
         style="fill:#52afe6;fill-opacity:1;fill-rule:nonzero;stroke:none"
         d="m 2750,2696.56 397.59,-428.02 200.33,44.62 -399.13,395.06 -198.79,-11.66" /><path
         id="path150"
         style="fill:#50a5e0;fill-opacity:1;fill-rule:nonzero;stroke:none"
         d="m 3134.23,2237.14 16.71,31.4 196.98,44.62 -20.24,-27.88 -193.45,-48.14" /><path
         id="path152"
         style="fill:#f4f4f4;fill-opacity:1;fill-rule:nonzero;stroke:none"
         d="M 2735.04,1977.97 H 2542.7 v 192.33 h 192.34 v -192.33" /><path
         id="path154"
         style="fill:#52afe6;fill-opacity:1;fill-rule:nonzero;stroke:none"
         d="m 2658.25,1934.56 h -36.83 v 269.28 h 36.83 v -269.28" /><path
         id="path156"
         style="fill:#52afe6;fill-opacity:1;fill-rule:nonzero;stroke:none"
         d="m 2762.18,2053.55 h -245.51 v 33.22 h 245.51 v -33.22" /><g
         id="g158"><g
           clip-path="url(#clipPath164)"
           id="g160"><path
             id="path166"
             style="fill:#f4f4f4;fill-opacity:1;fill-rule:nonzero;stroke:none"
             d="m 2991.76,1782.13 h -169.18 v 396.48 h 169.18 v -396.48" /><path
             id="path168"
             style="fill:#52afe6;fill-opacity:1;fill-rule:nonzero;stroke:none"
             d="m 2933.61,1780.06 h -51.75 v 413.79 h 51.75 v -413.79" /><path
             id="path170"
             style="fill:#52afe6;fill-opacity:1;fill-rule:nonzero;stroke:none"
             d="m 3005.21,1956.28 h -192.9 v 52.59 h 192.9 v -52.59" /><path
             id="path172"
             style="fill:#52afe6;fill-opacity:1;fill-rule:nonzero;stroke:none"
             d="m 3005.21,2074.49 h -192.9 v 52.58 h 192.9 v -52.58" /><path
             id="path174"
             style="fill:#52afe6;fill-opacity:1;fill-rule:nonzero;stroke:none"
             d="m 3005.21,1837.24 h -192.9 v 52.57 h 192.9 v -52.57" /></g></g><path
         id="path176"
         style="fill:#2e3591;fill-opacity:1;fill-rule:nonzero;stroke:none"
         d="m 5801.79,1777.26 2.89,-20.74 70.02,17.6 -20.33,46.76 -52.58,-43.62" /><path
         id="path178"
         style="fill:#2e3591;fill-opacity:1;fill-rule:nonzero;stroke:none"
         d="M 6031.45,2025.49 5840.6,1834.65 v -383.68 h 398.03 v 360.35 l -207.18,214.17" /><path
         id="path180"
         style="fill:#2e3591;fill-opacity:1;fill-rule:nonzero;stroke:none"
         d="m 6340.15,1820.88 h -101.52 v -369.91 l 101.52,32.26 v 337.65" /><path
         id="path182"
         style="fill:#2d2f7c;fill-opacity:1;fill-rule:nonzero;stroke:none"
         d="m 6238.63,1450.97 v 327.59 l 0.97,-1.04 -0.97,-27.16 22.72,3.75 10.14,-10.92 68.66,17.08 v -277.04 l -101.52,-32.26" /><path
         id="path184"
         style="fill:#2e3591;fill-opacity:1;fill-rule:nonzero;stroke:none"
         d="m 6138.99,2020.46 -114.37,17.92 -230.69,-242.75 10.75,-39.11 252.2,258.08 82.11,5.86" /><path
         id="path186"
         style="fill:#282a68;fill-opacity:1;fill-rule:nonzero;stroke:none"
         d="m 6238.63,1750.36 0.97,27.16 21.75,-23.41 -22.72,-3.75" /><path
         id="path188"
         style="fill:#2d2f7c;fill-opacity:1;fill-rule:nonzero;stroke:none"
         d="m 5840.6,1765.56 -2.36,20.66 2.36,2.63 v -23.29" /><path
         id="path190"
         style="fill:#2d2f7c;fill-opacity:1;fill-rule:nonzero;stroke:none"
         d="m 6238.63,1750.36 -206.18,224.1 -191.85,-208.9 v 23.29 l 48.63,54.2 148.39,151.84 201.01,-216.33 v -28.2" /><path
         id="path192"
         style="fill:#2d2f7c;fill-opacity:1;fill-rule:nonzero;stroke:none"
         d="m 5889.23,1843.05 142.22,158.48 v 0 l 0.49,-1.52 -0.02,1 5.7,-6.12 -148.39,-151.84" /><path
         id="path194"
         style="fill:#2e3591;fill-opacity:1;fill-rule:nonzero;stroke:none"
         d="m 6309.75,1811.32 -15.33,-37.2 -262.97,262.84 -10.94,-23.66 250.98,-270.11 124.31,30.93 13,17.92 -99.05,19.28" /><path
         id="path196"
         style="fill:#2e3591;fill-opacity:1;fill-rule:nonzero;stroke:none"
         d="m 6024.62,2038.38 255.46,-275.01 128.72,28.67 -256.45,253.83 -127.73,-7.49" /><path
         id="path198"
         style="fill:#2e3288;fill-opacity:1;fill-rule:nonzero;stroke:none"
         d="m 6271.49,1743.19 10.75,20.18 126.56,28.67 -13,-17.92 -124.31,-30.93" /><path
         id="path200"
         style="fill:#f4f4f4;fill-opacity:1;fill-rule:nonzero;stroke:none"
         d="m 6015.01,1576.67 h -123.58 v 123.57 h 123.58 v -123.57" /><path
         id="path202"
         style="fill:#2e3591;fill-opacity:1;fill-rule:nonzero;stroke:none"
         d="m 5965.67,1548.78 h -23.66 v 173.02 h 23.66 v -173.02" /><path
         id="path204"
         style="fill:#2e3591;fill-opacity:1;fill-rule:nonzero;stroke:none"
         d="m 6032.45,1625.23 h -157.74 v 21.34 h 157.74 v -21.34" /><g
         id="g206"><g
           clip-path="url(#clipPath212)"
           id="g208"><path
             id="path214"
             style="fill:#f4f4f4;fill-opacity:1;fill-rule:nonzero;stroke:none"
             d="m 6179.96,1450.84 h -108.7 v 254.75 h 108.7 v -254.75" /><path
             id="path216"
             style="fill:#2e3591;fill-opacity:1;fill-rule:nonzero;stroke:none"
             d="m 6142.6,1449.5 h -33.25 v 265.87 h 33.25 V 1449.5" /><path
             id="path218"
             style="fill:#2e3591;fill-opacity:1;fill-rule:nonzero;stroke:none"
             d="m 6188.6,1562.73 h -123.94 v 33.79 h 123.94 v -33.79" /><path
             id="path220"
             style="fill:#2e3591;fill-opacity:1;fill-rule:nonzero;stroke:none"
             d="m 6188.6,1638.69 h -123.94 v 33.78 h 123.94 v -33.78" /><path
             id="path222"
             style="fill:#2e3591;fill-opacity:1;fill-rule:nonzero;stroke:none"
             d="m 6188.6,1486.24 h -123.94 v 33.79 h 123.94 v -33.79" /></g></g><path
         id="path224"
         style="fill:#2e3591;fill-opacity:1;fill-rule:nonzero;stroke:none"
         d="m 1972.16,1795.62 2.79,-19.98 67.49,16.97 -19.59,45.07 -50.69,-42.06" /><path
         id="path226"
         style="fill:#2e3591;fill-opacity:1;fill-rule:nonzero;stroke:none"
         d="m 2193.53,2034.89 -183.95,-183.94 v -369.84 h 383.65 v 347.35 l -199.7,206.43" /><path
         id="path228"
         style="fill:#2e3591;fill-opacity:1;fill-rule:nonzero;stroke:none"
         d="m 2491.08,1837.68 h -97.85 v -356.57 l 97.85,31.12 v 325.45" /><path
         id="path230"
         style="fill:#2d2f7c;fill-opacity:1;fill-rule:nonzero;stroke:none"
         d="m 2393.23,1481.11 v 315.78 l 0.94,-1.01 -0.94,-26.17 21.9,3.61 9.78,-10.53 66.17,16.47 v -267.03 l -97.85,-31.12" /><path
         id="path232"
         style="fill:#2e3591;fill-opacity:1;fill-rule:nonzero;stroke:none"
         d="m 2297.2,2030.05 -110.25,17.26 -222.36,-233.97 10.36,-37.7 243.1,248.75 79.15,5.66" /><path
         id="path234"
         style="fill:#282a68;fill-opacity:1;fill-rule:nonzero;stroke:none"
         d="m 2393.23,1769.71 0.94,26.17 20.96,-22.56 -21.9,-3.61" /><path
         id="path236"
         style="fill:#629cd9;fill-opacity:1;fill-rule:nonzero;stroke:none"
         d="m 2009.58,1784.35 v 0 0 0" /><path
         id="path238"
         style="fill:#2d2f7c;fill-opacity:1;fill-rule:nonzero;stroke:none"
         d="m 2009.58,1784.35 -2.28,19.92 2.28,2.54 v -22.46" /><path
         id="path240"
         style="fill:#2d2f7c;fill-opacity:1;fill-rule:nonzero;stroke:none"
         d="m 2393.23,1769.71 -198.74,216 -184.91,-201.36 v 0 22.46 l 46.91,52.27 142.99,146.32 193.75,-208.51 v -27.18" /><path
         id="path242"
         style="fill:#2d2f7c;fill-opacity:1;fill-rule:nonzero;stroke:none"
         d="m 2056.49,1859.08 137.04,152.72 0.48,-1.47 -0.02,0.98 5.49,-5.91 -142.99,-146.32" /><path
         id="path244"
         style="fill:#2e3591;fill-opacity:1;fill-rule:nonzero;stroke:none"
         d="m 2461.78,1828.46 -14.77,-35.85 -253.48,253.35 -10.55,-22.81 241.93,-260.36 119.82,29.82 12.53,17.26 -95.48,18.59" /><path
         id="path246"
         style="fill:#2e3591;fill-opacity:1;fill-rule:nonzero;stroke:none"
         d="m 2186.95,2047.31 246.24,-265.07 124.07,27.63 -247.19,244.67 -123.12,-7.23" /><path
         id="path248"
         style="fill:#2e3288;fill-opacity:1;fill-rule:nonzero;stroke:none"
         d="m 2424.91,1762.79 10.35,19.45 122,27.63 -12.53,-17.26 -41.33,-10.29 -78.49,-19.53" /><path
         id="path250"
         style="fill:#f4f4f4;fill-opacity:1;fill-rule:nonzero;stroke:none"
         d="m 2177.69,1602.29 h -119.12 v 119.11 h 119.12 v -119.11" /><path
         id="path252"
         style="fill:#2e3591;fill-opacity:1;fill-rule:nonzero;stroke:none"
         d="m 2130.13,1575.39 h -22.81 v 166.78 h 22.81 v -166.78" /><path
         id="path254"
         style="fill:#2e3591;fill-opacity:1;fill-rule:nonzero;stroke:none"
         d="m 2194.49,1649.09 h -152.04 v 20.58 h 152.04 v -20.58" /><g
         id="g256"><g
           clip-path="url(#clipPath262)"
           id="g258"><path
             id="path264"
             style="fill:#f4f4f4;fill-opacity:1;fill-rule:nonzero;stroke:none"
             d="M 2336.68,1481 H 2231.9 v 245.54 h 104.78 V 1481" /><path
             id="path266"
             style="fill:#2e3591;fill-opacity:1;fill-rule:nonzero;stroke:none"
             d="m 2300.67,1479.71 h -32.06 v 256.27 h 32.06 v -256.27" /><path
             id="path268"
             style="fill:#2e3591;fill-opacity:1;fill-rule:nonzero;stroke:none"
             d="m 2345.01,1588.85 h -119.47 v 32.57 h 119.47 v -32.57" /><path
             id="path270"
             style="fill:#2e3591;fill-opacity:1;fill-rule:nonzero;stroke:none"
             d="m 2345.01,1662.06 h -119.47 v 32.57 h 119.47 v -32.57" /><path
             id="path272"
             style="fill:#2e3591;fill-opacity:1;fill-rule:nonzero;stroke:none"
             d="m 2345.01,1515.12 h -119.47 v 32.57 h 119.47 v -32.57" /></g></g><path
         id="path274"
         style="fill:#3871c1;fill-opacity:1;fill-rule:nonzero;stroke:none"
         d="m 4511.47,1739.29 4.51,-32.26 108.96,27.38 -31.62,72.78 -81.85,-67.9" /><path
         id="path276"
         style="fill:#3871c1;fill-opacity:1;fill-rule:nonzero;stroke:none"
         d="m 4868.92,2125.64 -297.03,-297.03 v -597.14 h 619.48 v 560.84 l -322.45,333.33" /><path
         id="path278"
         style="fill:#3871c1;fill-opacity:1;fill-rule:nonzero;stroke:none"
         d="m 5349.37,1807.19 h -158 v -575.72 l 158,50.22 v 525.5" /><path
         id="path280"
         style="fill:#305db2;fill-opacity:1;fill-rule:nonzero;stroke:none"
         d="m 5191.37,1231.47 v 509.85 l 1.51,-1.63 -1.51,-42.26 35.36,5.83 15.79,-16.99 106.85,26.59 v -431.17 l -158,-50.22" /><path
         id="path282"
         style="fill:#3871c1;fill-opacity:1;fill-rule:nonzero;stroke:none"
         d="m 5036.3,2117.81 -178.01,27.89 -359.04,-377.8 16.73,-60.87 392.52,401.65 127.8,9.13" /><path
         id="path284"
         style="fill:#284ea4;fill-opacity:1;fill-rule:nonzero;stroke:none"
         d="m 5191.37,1697.43 1.51,42.26 33.85,-36.43 -35.36,-5.83" /><path
         id="path286"
         style="fill:#305db2;fill-opacity:1;fill-rule:nonzero;stroke:none"
         d="m 4571.89,1721.08 -3.68,32.16 3.68,4.11 v -36.27" /><path
         id="path288"
         style="fill:#305db2;fill-opacity:1;fill-rule:nonzero;stroke:none"
         d="m 5191.37,1697.43 -320.9,348.79 -298.58,-325.14 v 36.27 l 75.74,84.39 230.89,236.27 312.85,-336.69 v -43.89" /><path
         id="path290"
         style="fill:#305db2;fill-opacity:1;fill-rule:nonzero;stroke:none"
         d="m 4647.63,1841.74 221.29,246.61 v -0.01 l 0.77,-2.36 -0.03,1.56 8.86,-9.53 -230.89,-236.27" /><path
         id="path292"
         style="fill:#3871c1;fill-opacity:1;fill-rule:nonzero;stroke:none"
         d="m 5302.05,1792.31 -23.85,-57.9 -409.28,409.09 -17.04,-36.83 390.64,-420.4 193.46,48.14 20.23,27.88 -154.16,30.02" /><path
         id="path294"
         style="fill:#3871c1;fill-opacity:1;fill-rule:nonzero;stroke:none"
         d="m 4858.29,2145.7 397.6,-428.02 200.32,44.61 -399.12,395.07 -198.8,-11.66" /><path
         id="path296"
         style="fill:#3468bb;fill-opacity:1;fill-rule:nonzero;stroke:none"
         d="m 5242.52,1686.27 16.71,31.41 196.98,44.61 -20.23,-27.88 -193.46,-48.14" /><path
         id="path298"
         style="fill:#f4f4f4;fill-opacity:1;fill-rule:nonzero;stroke:none"
         d="M 4843.33,1427.1 H 4651 v 192.34 h 192.33 V 1427.1" /><path
         id="path300"
         style="fill:#3871c1;fill-opacity:1;fill-rule:nonzero;stroke:none"
         d="m 4766.53,1383.69 h -36.81 v 269.29 h 36.81 v -269.29" /><path
         id="path302"
         style="fill:#3871c1;fill-opacity:1;fill-rule:nonzero;stroke:none"
         d="m 4870.47,1502.7 h -245.51 v 33.21 h 245.51 v -33.21" /><g
         id="g304"><g
           clip-path="url(#clipPath310)"
           id="g306"><path
             id="path312"
             style="fill:#f4f4f4;fill-opacity:1;fill-rule:nonzero;stroke:none"
             d="m 5100.05,1231.26 h -169.17 v 396.48 h 169.17 v -396.48" /><path
             id="path314"
             style="fill:#3871c1;fill-opacity:1;fill-rule:nonzero;stroke:none"
             d="m 5041.9,1229.19 h -51.74 v 413.79 h 51.74 v -413.79" /><path
             id="path316"
             style="fill:#3871c1;fill-opacity:1;fill-rule:nonzero;stroke:none"
             d="m 5113.51,1405.42 h -192.9 V 1458 h 192.9 v -52.58" /><path
             id="path318"
             style="fill:#3871c1;fill-opacity:1;fill-rule:nonzero;stroke:none"
             d="m 5113.51,1523.62 h -192.9 v 52.59 h 192.9 v -52.59" /><path
             id="path320"
             style="fill:#3871c1;fill-opacity:1;fill-rule:nonzero;stroke:none"
             d="m 5113.51,1286.37 h -192.9 v 52.58 h 192.9 v -52.58" /></g></g><path
         id="path322"
         style="fill:#3871c1;fill-opacity:1;fill-rule:nonzero;stroke:none"
         d="m 2941.67,1731.25 4.49,-32.25 108.98,27.38 -31.63,72.77 -81.84,-67.9" /><path
         id="path324"
         style="fill:#3871c1;fill-opacity:1;fill-rule:nonzero;stroke:none"
         d="m 3299.11,2117.6 -297.03,-297.02 v -597.15 h 619.48 v 560.84 l -322.45,333.33" /><path
         id="path326"
         style="fill:#3871c1;fill-opacity:1;fill-rule:nonzero;stroke:none"
         d="m 3779.56,1799.15 h -158 v -575.72 l 158,50.22 v 525.5" /><path
         id="path328"
         style="fill:#305db2;fill-opacity:1;fill-rule:nonzero;stroke:none"
         d="m 3621.56,1223.43 v 509.86 l 1.51,-1.63 -1.51,-42.26 35.37,5.82 15.78,-16.99 106.85,26.59 v -431.17 l -158,-50.22" /><path
         id="path330"
         style="fill:#3871c1;fill-opacity:1;fill-rule:nonzero;stroke:none"
         d="m 3466.49,2109.78 -178.01,27.89 -359.04,-377.81 16.72,-60.86 392.53,401.65 127.8,9.13" /><path
         id="path332"
         style="fill:#284ea4;fill-opacity:1;fill-rule:nonzero;stroke:none"
         d="m 3621.56,1689.4 1.51,42.26 33.86,-36.44 -35.37,-5.82" /><path
         id="path334"
         style="fill:#305db2;fill-opacity:1;fill-rule:nonzero;stroke:none"
         d="m 3002.08,1713.05 -3.68,32.16 3.68,4.1 v -36.26" /><path
         id="path336"
         style="fill:#305db2;fill-opacity:1;fill-rule:nonzero;stroke:none"
         d="m 3621.56,1689.4 -320.9,348.78 -298.58,-325.13 v 0 36.26 l 75.75,84.41 230.88,236.25 312.85,-336.68 v -43.89" /><path
         id="path338"
         style="fill:#305db2;fill-opacity:1;fill-rule:nonzero;stroke:none"
         d="m 3077.83,1833.72 221.28,246.59 v -0.01 l 0.77,-2.36 -0.03,1.56 8.86,-9.53 -230.88,-236.25" /><path
         id="path340"
         style="fill:#3871c1;fill-opacity:1;fill-rule:nonzero;stroke:none"
         d="m 3732.24,1784.27 -23.84,-57.89 -409.29,409.08 -17.03,-36.83 390.63,-420.4 193.46,48.15 20.24,27.88 -154.17,30.01" /><path
         id="path342"
         style="fill:#3871c1;fill-opacity:1;fill-rule:nonzero;stroke:none"
         d="m 3288.48,2137.67 397.59,-428.03 200.34,44.62 -399.13,395.07 -198.8,-11.66" /><path
         id="path344"
         style="fill:#3468bb;fill-opacity:1;fill-rule:nonzero;stroke:none"
         d="m 3672.71,1678.23 16.71,31.41 196.99,44.62 -20.24,-27.88 -193.46,-48.15" /><path
         id="path346"
         style="fill:#f4f4f4;fill-opacity:1;fill-rule:nonzero;stroke:none"
         d="m 3273.52,1419.06 h -192.34 v 192.35 h 192.34 v -192.35" /><path
         id="path348"
         style="fill:#3871c1;fill-opacity:1;fill-rule:nonzero;stroke:none"
         d="m 3196.73,1375.65 h -36.83 v 269.29 h 36.83 v -269.29" /><path
         id="path350"
         style="fill:#3871c1;fill-opacity:1;fill-rule:nonzero;stroke:none"
         d="m 3300.66,1494.66 h -245.5 v 33.21 h 245.5 v -33.21" /><g
         id="g352"><g
           clip-path="url(#clipPath358)"
           id="g354"><path
             id="path360"
             style="fill:#f4f4f4;fill-opacity:1;fill-rule:nonzero;stroke:none"
             d="m 3530.24,1223.22 h -169.17 v 396.49 h 169.17 v -396.49" /><path
             id="path362"
             style="fill:#3871c1;fill-opacity:1;fill-rule:nonzero;stroke:none"
             d="m 3472.09,1221.15 h -51.75 v 413.79 h 51.75 v -413.79" /><path
             id="path364"
             style="fill:#3871c1;fill-opacity:1;fill-rule:nonzero;stroke:none"
             d="m 3543.69,1397.38 h -192.9 v 52.58 h 192.9 v -52.58" /><path
             id="path366"
             style="fill:#3871c1;fill-opacity:1;fill-rule:nonzero;stroke:none"
             d="m 3543.69,1515.59 h -192.9 v 52.58 h 192.9 v -52.58" /><path
             id="path368"
             style="fill:#3871c1;fill-opacity:1;fill-rule:nonzero;stroke:none"
             d="m 3543.69,1278.33 h -192.9 v 52.58 h 192.9 v -52.58" /></g></g><path
         id="path370"
         style="fill:#ffffff;fill-opacity:1;fill-rule:nonzero;stroke:none"
         d="m 4595.91,3573.95 c 3.04,7.56 4.74,15.54 4.74,23.81 0,47.32 -53.19,85.68 -118.81,85.68 -12.79,0 -25.08,-1.49 -36.63,-4.19 l 0.11,1.46 c 0,99.93 -112.34,180.94 -250.92,180.94 -40.73,0 -79.08,-7.16 -113.09,-19.58 -56.22,63.54 -154.78,105.72 -267.05,105.72 -152.36,0 -279.54,-77.6 -309.78,-180.98 -19.05,4.45 -39.32,6.93 -60.42,6.93 -75.12,0 -140.27,-30.55 -173.09,-75.33 -15.29,3.87 -31.66,6.08 -48.78,6.08 -81.5,0 -147.56,-47.64 -147.56,-106.41 0,-8.31 1.45,-16.37 3.95,-24.13 h 1517.33" /><path
         id="path372"
         style="fill:#ffffff;fill-opacity:1;fill-rule:nonzero;stroke:none"
         d="m 5005.03,3111.59 c -2.57,6.38 -4.01,13.09 -4.01,20.06 0,39.86 44.9,72.17 100.3,72.17 10.79,0 21.16,-1.26 30.91,-3.53 l -0.09,1.22 c 0,84.17 94.82,152.4 211.81,152.4 34.38,0 66.75,-6.03 95.46,-16.49 47.47,53.52 130.66,89.04 225.43,89.04 128.61,0 235.97,-65.36 261.5,-152.43 16.07,3.75 33.18,5.84 50.99,5.84 63.41,0 118.41,-25.73 146.12,-63.44 12.91,3.25 26.73,5.12 41.17,5.12 68.8,0 124.57,-40.13 124.57,-89.63 0,-7 -1.23,-13.79 -3.35,-20.33 H 5005.03" /><path
         id="path374"
         style="fill:#ffffff;fill-opacity:1;fill-rule:nonzero;stroke:none"
         d="m 3338.49,2985.89 c -1.14,2.75 -1.78,5.64 -1.78,8.65 0,17.17 19.93,31.09 44.52,31.09 4.79,0 9.39,-0.54 13.72,-1.52 l -0.04,0.53 c 0,36.27 42.09,65.67 94.01,65.67 15.25,0 29.62,-2.6 42.37,-7.11 21.06,23.07 57.98,38.38 100.05,38.38 57.08,0 104.73,-28.17 116.06,-65.69 7.14,1.61 14.73,2.51 22.64,2.51 28.14,0 52.55,-11.08 64.84,-27.34 5.74,1.41 11.87,2.21 18.28,2.21 30.53,0 55.29,-17.29 55.29,-38.62 0,-3.02 -0.55,-5.94 -1.49,-8.76 h -568.47" /><path
         id="path376"
         style="fill:#82d4f6;fill-opacity:1;fill-rule:nonzero;stroke:none"
         d="m 1453.6,558.949 c -138.99,0 -269.86,3.633 -384.31,10.031 25.91,15.75 -9.74,76.02 -61.54,131.68 128.04,5.352 281.24,7.762 445.85,7.762 25.97,0 51.67,-0.063 77.02,-0.18 -1.64,-26.66 -1.27,-49.172 3.8,-67.683 0.01,0 0.01,-0.008 0.01,-0.02 0.03,-0.117 0.06,-0.23 0.1,-0.348 0,-0.019 0,-0.019 0.01,-0.031 0.03,-0.121 0.06,-0.238 0.09,-0.359 0.02,-0.039 0.03,-0.102 0.05,-0.141 0.01,-0.058 0.03,-0.121 0.05,-0.18 0.02,-0.07 0.04,-0.148 0.06,-0.218 0.01,-0.032 0.02,-0.063 0.03,-0.09 2.15,-7.43 5.09,-14.203 9,-20.32 0.01,-0.02 0.02,-0.032 0.03,-0.043 0.05,-0.079 0.09,-0.149 0.14,-0.227 l 0.01,-0.012 c 0.1,-0.16 0.2,-0.308 0.3,-0.461 0.01,-0.007 0.01,-0.019 0.02,-0.027 0.04,-0.062 0.08,-0.121 0.12,-0.184 0.02,-0.027 0.04,-0.058 0.06,-0.097 0.04,-0.051 0.08,-0.11 0.12,-0.172 0.02,-0.027 0.05,-0.07 0.07,-0.109 0.04,-0.051 0.07,-0.11 0.11,-0.161 0.04,-0.05 0.07,-0.109 0.11,-0.16 0.05,-0.07 0.1,-0.14 0.15,-0.219 0.03,-0.05 0.07,-0.101 0.1,-0.148 0.03,-0.043 0.06,-0.09 0.09,-0.133 0.04,-0.051 0.08,-0.109 0.11,-0.16 0.03,-0.039 0.06,-0.078 0.09,-0.117 0.04,-0.063 0.08,-0.121 0.13,-0.184 0.02,-0.039 0.04,-0.058 0.06,-0.09 0.06,-0.089 0.13,-0.187 0.19,-0.269 0.02,-0.027 0.05,-0.059 0.07,-0.09 0.04,-0.07 0.09,-0.129 0.13,-0.187 0.03,-0.043 0.05,-0.071 0.08,-0.102 0.04,-0.07 0.09,-0.129 0.13,-0.191 0.03,-0.028 0.05,-0.059 0.07,-0.098 0.07,-0.09 0.14,-0.18 0.2,-0.27 v 0 c 0.02,-0.019 0.04,-0.05 0.06,-0.07 0.03,-0.051 0.07,-0.09 0.11,-0.141 7.64,-9.269 60.32,-13.23 126.55,-13.23 95.62,0 219.49,8.25 276.75,20.672 4.54,0.976 8.66,1.988 12.32,3.027 1.35,0.383 2.62,0.77 3.83,1.18 0.01,0 0.02,0 0.03,0.012 0.01,0 0.02,0 0.03,0.011 41.83,13.989 1.75,41.168 -71.16,74.438 223.97,-9.199 372.17,-27.309 372.17,-57.16 0,-46.801 -364.27,-84.731 -813.6,-84.731 m -444.15,13.723 C 786.992,587.801 640,613.949 640,643.68 c 0,16.75 46.656,29.8 127.152,39.66 75.25,-46.621 178.621,-92.848 242.298,-110.668" /><path
         id="path378"
         style="fill:#1d3257;fill-opacity:1;fill-rule:nonzero;stroke:none"
         d="m 1645.13,3999.29 -55.83,105.47 c 0,0 -133.9,62.12 -242.91,-33.41 -109.02,-95.52 -104.85,-172.71 -215.46,-187.88 -34.57,-4.74 -72.26,-3.55 -109.69,-2.37 -82.345,2.61 -163.439,5.22 -207.24,-55.27 -63.719,-87.99 -36.41,-163.15 -209.355,-198.39 -172.942,-35.24 -183.137,-361.83 -45.508,-467.23 116.929,-89.56 207.293,11.13 285.203,-135.39 58.195,-109.44 248.8,-130.79 351.96,-48.71 103.16,82.08 119.78,166.49 237.39,195.59 117.59,29.1 139,70.63 155.61,127.24 16.6,56.6 -83.09,215.15 -13.35,256.85 119.84,71.65 193.37,346.92 69.18,443.5" /><path
         id="path380"
         style="fill:#7fb1cb;fill-opacity:1;fill-rule:nonzero;stroke:none"
         d="m 1498.2,3192.69 v 0 c 62.25,27.07 78.14,62.07 91.1,106.25 1.31,4.47 1.9,9.59 1.89,15.23 0.01,-5.64 -0.58,-10.76 -1.89,-15.23 -12.96,-44.18 -28.85,-79.18 -91.1,-106.25 m 52.68,309.49 c 0.02,23.35 6.61,42.57 25.07,53.61 0.11,0.06 0.22,0.13 0.33,0.19 -0.11,-0.06 -0.22,-0.13 -0.33,-0.19 -18.46,-11.04 -25.05,-30.26 -25.07,-53.61 m 25.45,53.83 c 0.1,0.07 0.19,0.12 0.3,0.18 -0.1,-0.06 -0.2,-0.12 -0.3,-0.18 m 0.33,0.2 c 0.22,0.14 0.45,0.28 0.67,0.41 -0.22,-0.13 -0.45,-0.27 -0.67,-0.41 m 0.71,0.43 c 0.69,0.43 1.38,0.86 2.07,1.3 -0.69,-0.44 -1.38,-0.87 -2.07,-1.3 m 2.08,1.3 c 0.23,0.15 0.45,0.29 0.68,0.44 -0.22,-0.14 -0.45,-0.29 -0.68,-0.44 m 0.7,0.45 c 0.12,0.08 0.22,0.14 0.33,0.22 -0.11,-0.07 -0.22,-0.14 -0.33,-0.22 m 0.34,0.22 c 0.12,0.08 0.23,0.15 0.34,0.22 -0.11,-0.07 -0.22,-0.14 -0.34,-0.22 m 0.36,0.24 c 0.1,0.06 0.2,0.13 0.29,0.19 -0.09,-0.07 -0.19,-0.13 -0.29,-0.19 m 0.38,0.25 c 0.08,0.05 0.14,0.09 0.21,0.13 -0.07,-0.04 -0.14,-0.09 -0.21,-0.13 m 0.33,0.21 c 0.09,0.06 0.19,0.13 0.28,0.18 -0.09,-0.06 -0.19,-0.12 -0.28,-0.18 m 0.42,0.28 c 0.05,0.04 0.1,0.07 0.15,0.1 -0.05,-0.03 -0.1,-0.07 -0.15,-0.1 m 0.33,0.22 c 0.02,0.02 0.05,0.03 0.07,0.05 -0.02,-0.02 -0.05,-0.03 -0.07,-0.05" /><path
         id="path382"
         style="fill:#182744;fill-opacity:1;fill-rule:nonzero;stroke:none"
         d="m 1498.2,3192.69 -31.19,291.36 c -1.24,0.05 -2.48,0.11 -3.71,0.19 0.53,9.25 1.6,18.43 3.09,27.43 6.07,32.05 15.53,60.69 25.79,82.86 0.22,0.47 0.44,0.93 0.65,1.39 23.73,-14.4 48.41,-22.61 70.64,-23.31 0.11,-0.01 0.21,-0.01 0.32,-0.01 v 0 0 c 0.79,-0.03 1.57,-0.04 2.35,-0.04 16.08,0 31.5,4.69 45.8,12.06 -9.41,-9.57 -19.3,-17.91 -29.56,-24.76 -0.02,-0.02 -0.05,-0.03 -0.07,-0.05 -0.06,-0.04 -0.12,-0.08 -0.18,-0.12 -0.05,-0.03 -0.1,-0.06 -0.15,-0.1 -0.05,-0.03 -0.09,-0.06 -0.14,-0.1 -0.09,-0.05 -0.19,-0.12 -0.28,-0.18 -0.04,-0.02 -0.08,-0.05 -0.12,-0.08 -0.07,-0.04 -0.13,-0.08 -0.21,-0.13 -0.03,-0.02 -0.06,-0.04 -0.09,-0.06 -0.09,-0.06 -0.19,-0.13 -0.29,-0.19 0,-0.01 -0.01,-0.01 -0.02,-0.02 -0.11,-0.07 -0.22,-0.14 -0.34,-0.22 h -0.01 c -0.11,-0.08 -0.21,-0.14 -0.33,-0.22 0,0 -0.01,0 -0.02,-0.01 -0.23,-0.15 -0.45,-0.29 -0.68,-0.44 -0.01,0 -0.01,0 -0.01,0 -0.69,-0.44 -1.38,-0.87 -2.07,-1.3 -0.02,0 -0.03,-0.01 -0.04,-0.02 -0.22,-0.13 -0.45,-0.27 -0.67,-0.41 -0.01,0 -0.02,-0.01 -0.03,-0.02 -0.11,-0.06 -0.2,-0.11 -0.3,-0.18 -0.02,-0.01 -0.04,-0.02 -0.05,-0.03 -0.11,-0.06 -0.22,-0.13 -0.33,-0.19 -18.46,-11.04 -25.05,-30.26 -25.07,-53.61 -0.04,-57.89 40.31,-141.18 40.31,-188.01 0.01,-5.64 -0.58,-10.76 -1.89,-15.23 -12.96,-44.18 -28.85,-79.18 -91.1,-106.25" /><path
         id="path384"
         style="fill:#f8a090;fill-opacity:1;fill-rule:nonzero;stroke:none"
         d="m 1713.03,2926.52 c 0,0 81.96,-40.98 116.11,-34.15 34.16,6.83 41.26,35.84 80.26,34.15 18.83,-0.82 -27.87,-47.81 6.28,-73.43 34.15,-25.61 88.19,-28.05 142.41,-13.53 15.25,4.08 6.19,-16.48 -20.49,-32.7 -22.8,-13.86 1.58,-25.74 -8.67,-37.7 -10.24,-11.95 -70.01,-73.17 -136.61,-39.01 -66.59,34.15 -151.97,54.64 -151.97,54.64 l -27.32,141.73" /><path
         id="path386"
         style="fill:#f8a090;fill-opacity:1;fill-rule:nonzero;stroke:none"
         d="m 1574.12,3689.33 c 0,0 -67.76,-64.83 -80.92,-92.62 -20.71,-43.76 -41.62,-115.43 -23.18,-177.75 3,-10.14 -8.93,-18.16 -17.34,-11.75 -56.26,42.9 -165.91,134.02 -195.82,213.23 0,0 116.48,114.47 126.99,243.99 10.52,129.53 145.73,79.74 145.73,79.74 l 40.87,-110.47 3.67,-144.37" /><path
         id="path388"
         style="fill:#142133;fill-opacity:1;fill-rule:nonzero;stroke:none"
         d="m 1466.39,3511.67 c 5.19,31.34 15.43,60.52 25.79,82.86 -10.26,-22.17 -19.72,-50.81 -25.79,-82.86" /><path
         id="path390"
         style="fill:#f57f70;fill-opacity:1;fill-rule:nonzero;stroke:none"
         d="m 1462.2,3484.31 c -127.62,9.01 -165.36,176.62 -165.36,176.62 -2.44,-1.08 -4.87,-2.22 -7.29,-3.41 1.31,1.64 2.65,3.32 4,5.05 21.94,9.09 64.3,28.68 100.86,57.66 7.83,-24.94 20.78,-47.97 36.65,-68.05 17.83,-23.54 39.38,-42.66 61.77,-56.26 -0.21,-0.46 -0.43,-0.92 -0.65,-1.39 -10.36,-22.34 -20.6,-51.52 -25.79,-82.86 -1.68,-8.88 -3.09,-18.02 -4.19,-27.36" /><path
         id="path392"
         style="fill:#f8a090;fill-opacity:1;fill-rule:nonzero;stroke:none"
         d="m 1613.13,4047.09 c 80.93,-15.18 132.09,-66.46 141.9,-175.87 5.87,-65.39 -37.61,-115.76 -26.11,-153.33 7.58,-24.77 19.15,-24.69 8.42,-33.78 -14.34,-12.15 -34.29,-7.35 -34.29,-7.35 0,0 -62.3,-106.35 -139.26,-104.16 -69.23,1.97 -172.91,87.15 -177.4,192.83 -2.76,64.94 41.22,316.47 226.74,281.66" /><path
         id="path394"
         style="fill:#142133;fill-opacity:1;fill-rule:nonzero;stroke:none"
         d="m 1563.47,3572.61 c -22.23,0.7 -46.91,8.91 -70.64,23.31 0.13,0.27 0.25,0.53 0.37,0.79 24.06,-14.76 48.8,-23.41 70.27,-24.1" /><path
         id="path396"
         style="fill:#f57f70;fill-opacity:1;fill-rule:nonzero;stroke:none"
         d="m 1492.83,3595.92 v 0 c 0.13,0.26 0.25,0.53 0.37,0.79 v 0 c -0.12,-0.26 -0.24,-0.52 -0.37,-0.79" /><path
         id="path398"
         style="fill:#f36455;fill-opacity:1;fill-rule:nonzero;stroke:none"
         d="m 1492.83,3595.92 c -22.39,13.6 -43.94,32.72 -61.77,56.26 18,-22.77 39.78,-41.76 62.14,-55.47 -0.12,-0.26 -0.24,-0.53 -0.37,-0.79" /><path
         id="path400"
         style="fill:#f57f70;fill-opacity:1;fill-rule:nonzero;stroke:none"
         d="m 1564.23,3572.59 c -0.15,0 -0.29,0 -0.44,0.01 v 0 0 c -0.11,0 -0.21,0 -0.32,0.01 -21.47,0.69 -46.21,9.34 -70.27,24.1 v 0 c -22.36,13.71 -44.14,32.7 -62.14,55.47 -15.14,19.99 -27.59,43.17 -35.6,68.88 31.35,25.08 58.24,57.09 63.98,95.33 3.14,-1.62 6.52,-3.09 10.16,-4.38 l 47.84,76.79 c 0,0 1.02,3.29 1.98,8.38 4.29,2.93 8.7,5.3 13.19,7.18 -27.1,-57.86 -38.41,-120.35 -37.48,-147.81 2.43,-72.12 24.45,-149.7 74.3,-183.63 -1.74,-0.07 -3.45,-0.33 -5.2,-0.33" /><path
         id="path402"
         style="fill:#1d3257;fill-opacity:1;fill-rule:nonzero;stroke:none"
         d="m 1755.58,4050.39 c -46.82,-9.45 -84.71,11.62 -127.33,32.69 -53.72,26.56 -114.96,53.12 -211.08,18.58 -129.1,-46.39 -97.7,-227.01 -90.29,-296.4 4.29,-40.32 -48.22,-148.49 -48.22,-148.49 0,0 198.19,69.12 180.84,189.65 -6.29,43.71 12.18,13.12 55.32,47.37 57.63,45.75 139.1,-17.07 158.63,-27.07 49.54,-25.37 155.67,-7.61 184.57,39.15 37.25,60.29 22.69,169.77 -102.44,144.52" /><path
         id="path404"
         style="fill:#7fb1cb;fill-opacity:1;fill-rule:nonzero;stroke:none"
         d="m 1858.23,3906.21 c 0,0.01 0.01,0.02 0.01,0.03 0,-0.01 -0.01,-0.02 -0.01,-0.03 m 0.2,0.34 c 0.01,0.01 0.02,0.03 0.03,0.04 -0.01,-0.02 -0.02,-0.03 -0.03,-0.04 m 0.21,0.34 c 0.01,0.02 0.02,0.03 0.03,0.04 -0.01,-0.01 -0.02,-0.02 -0.03,-0.04 m 0.21,0.35 c 0.01,0.01 0.02,0.03 0.03,0.04 -0.01,-0.01 -0.02,-0.03 -0.03,-0.04 m 0.22,0.37 c 0,0 0,0 0.01,0.01 -0.01,-0.01 -0.01,-0.01 -0.01,-0.01 m 0.21,0.36 v 0 0 m 0.41,0.7 0.01,0.01 -0.01,-0.01" /><path
         id="path406"
         style="fill:#182744;fill-opacity:1;fill-rule:nonzero;stroke:none"
         d="m 1731.82,3855.14 c -22.23,0 -43.02,3.72 -58.37,11.58 -14.43,7.39 -62.62,43.57 -110.05,43.57 -15.11,0 -30.14,-3.67 -43.98,-13.11 0.29,1.56 0.58,3.29 0.83,5.14 17,17.73 38.28,23.83 59.87,23.83 42.94,0 87.05,-24.16 100.82,-28.96 10.16,-3.54 22.19,-5.19 35.14,-5.19 54.1,0 124.39,28.8 142.28,69.37 6.32,14.32 9.79,30.68 10.09,47.01 13.18,-30.56 8.19,-70.35 -8.75,-99.7 l -0.01,-0.01 c -0.13,-0.23 -0.27,-0.47 -0.41,-0.7 v 0 c -0.07,-0.12 -0.14,-0.24 -0.2,-0.35 -0.01,-0.01 -0.01,-0.01 -0.01,-0.01 -0.06,-0.11 -0.13,-0.22 -0.19,-0.33 -0.01,-0.01 -0.02,-0.03 -0.03,-0.04 -0.06,-0.1 -0.12,-0.21 -0.18,-0.31 -0.01,-0.01 -0.02,-0.02 -0.03,-0.04 -0.06,-0.1 -0.12,-0.2 -0.18,-0.3 -0.01,-0.01 -0.02,-0.03 -0.03,-0.04 -0.06,-0.11 -0.12,-0.21 -0.19,-0.31 0,-0.01 -0.01,-0.02 -0.01,-0.03 -0.07,-0.12 -0.14,-0.23 -0.21,-0.34 v 0 c -19.95,-32.27 -76.67,-50.73 -126.2,-50.73" /><path
         id="path408"
         style="fill:#f8a090;fill-opacity:1;fill-rule:nonzero;stroke:none"
         d="m 1517.44,3888.8 c 0,0 19.18,61.84 -30.69,64.72 -49.87,2.89 -98.8,-112.47 -17.15,-141.51 l 47.84,76.79" /><path
         id="path410"
         style="fill:#f57f70;fill-opacity:1;fill-rule:nonzero;stroke:none"
         d="m 1469.6,3812.01 c -3.64,1.29 -7.02,2.76 -10.16,4.38 -24.03,12.43 -33.47,33.91 -33.48,56.22 -0.02,39.19 29.01,80.97 58.95,80.97 0.61,0 1.23,-0.02 1.84,-0.06 28.15,-1.62 34.3,-22.04 34.32,-39.51 0.01,-13.48 -3.63,-25.21 -3.63,-25.21 l -47.84,-76.79" /><path
         id="path412"
         style="fill:#1d3257;fill-opacity:1;fill-rule:nonzero;stroke:none"
         d="m 1692.28,913.57 c 0,0 29.07,-140.09 123.87,-178.968 120.17,-49.27 209.2,-91.551 146.14,-109.403 -81.93,-23.199 -397.95,-34.25 -415.78,-10.258 -38.4,51.7 2.05,154.028 -3.47,314.161 -1.13,32.82 149.24,-15.532 149.24,-15.532" /><path
         id="path414"
         style="fill:#ffffff;fill-opacity:1;fill-rule:nonzero;stroke:none"
         d="m 1717.18,721.859 c 8.37,10.86 16.86,20.551 27.41,29.371 5.38,4.161 11.27,8.34 18.68,10.192 3.75,0.699 7.82,1 11.45,-0.551 3.65,-1.301 6.34,-4.012 8.21,-6.859 -6.43,3.148 -12.22,2.789 -17.3,0.359 -5.15,-2.641 -10.11,-6.492 -15.06,-10.551 -10.02,-7.949 -20.41,-17.031 -33.39,-21.961" /><path
         id="path416"
         style="fill:#ffffff;fill-opacity:1;fill-rule:nonzero;stroke:none"
         d="m 1742.87,707.141 c 8.37,10.879 16.86,20.558 27.4,29.371 5.38,4.168 11.28,8.34 18.69,10.187 3.74,0.699 7.81,1.012 11.45,-0.551 3.65,-1.296 6.34,-4.007 8.21,-6.839 -6.43,3.132 -12.23,2.773 -17.31,0.339 -5.15,-2.636 -10.11,-6.488 -15.06,-10.546 -10.01,-7.954 -20.41,-17.032 -33.38,-21.961" /><path
         id="path418"
         style="fill:#5388a1;fill-opacity:1;fill-rule:nonzero;stroke:none"
         d="m 1546.68,614.73 c -0.04,0.051 -0.08,0.09 -0.11,0.141 0.03,-0.051 0.07,-0.09 0.11,-0.141 m -0.17,0.211 v 0 c -0.06,0.09 -0.13,0.18 -0.2,0.27 0.07,-0.09 0.14,-0.18 0.2,-0.27 v 0 m -0.27,0.368 c -0.04,0.062 -0.09,0.121 -0.13,0.191 0.04,-0.059 0.09,-0.129 0.13,-0.191 m -0.21,0.293 c -0.04,0.058 -0.09,0.117 -0.13,0.187 0.04,-0.07 0.09,-0.129 0.13,-0.187 m -0.2,0.277 c -0.06,0.082 -0.13,0.18 -0.19,0.269 0.06,-0.089 0.13,-0.179 0.19,-0.269 m -0.25,0.359 c -0.05,0.063 -0.09,0.121 -0.13,0.184 0.04,-0.063 0.08,-0.121 0.13,-0.184 m -0.22,0.301 c -0.03,0.051 -0.07,0.109 -0.11,0.16 0.04,-0.051 0.07,-0.097 0.11,-0.16 m -0.2,0.293 c -0.03,0.047 -0.07,0.098 -0.1,0.148 0.03,-0.05 0.07,-0.101 0.1,-0.148 m -0.25,0.367 c -0.04,0.051 -0.07,0.11 -0.11,0.16 0.04,-0.058 0.07,-0.109 0.11,-0.16 m -0.22,0.321 c -0.02,0.039 -0.05,0.082 -0.07,0.109 0.02,-0.039 0.05,-0.07 0.07,-0.109 m -0.19,0.281 c -0.02,0.039 -0.04,0.07 -0.06,0.097 0.02,-0.027 0.04,-0.058 0.06,-0.097 m -0.18,0.281 c -0.01,0.008 -0.01,0.02 -0.02,0.027 0.01,-0.007 0.01,-0.019 0.02,-0.027 m -0.32,0.488 -0.01,0.012 0.01,-0.012 m -0.15,0.239 c -0.01,0.011 -0.02,0.023 -0.03,0.043 0.01,-0.02 0.02,-0.032 0.03,-0.043 m 406.13,3.363 c 4.54,0.976 8.65,1.988 12.31,3.027 1.35,0.383 2.63,0.77 3.84,1.18 -1.21,-0.41 -2.48,-0.797 -3.83,-1.18 -3.66,-1.039 -7.78,-2.051 -12.32,-3.027 m 16.18,4.219 c 0.01,0 0.02,0 0.03,0.011 -0.01,-0.011 -0.02,-0.011 -0.03,-0.011 m -431.34,12.781 c -0.01,0.027 -0.02,0.058 -0.03,0.09 0.01,-0.032 0.02,-0.063 0.03,-0.09 m -0.09,0.308 c -0.02,0.059 -0.04,0.122 -0.05,0.18 0.01,-0.058 0.03,-0.121 0.05,-0.18 m -0.1,0.321 c -0.03,0.121 -0.06,0.238 -0.09,0.359 0.03,-0.121 0.06,-0.238 0.09,-0.359 m -0.1,0.39 c -0.04,0.118 -0.07,0.231 -0.1,0.348 0.03,-0.117 0.06,-0.238 0.1,-0.348" /><path
         id="path420"
         style="fill:#7c99a1;fill-opacity:1;fill-rule:nonzero;stroke:none"
         d="m 1530.66,708.242 c -0.03,0 -0.01,0 -0.04,0 1.54,24.899 4.84,53.418 7.72,85.68 h 0.06 c -2.88,-32.262 -6.19,-60.793 -7.74,-85.68" /><path
         id="path422"
         style="fill:#5388a1;fill-opacity:1;fill-rule:nonzero;stroke:none"
         d="m 1534.42,640.559 c -5.07,18.511 -5.44,41.023 -3.8,67.683 0.03,0 0.01,0 0.04,0 -1.66,-26.672 -1.31,-49.172 3.76,-67.683" /><path
         id="path424"
         style="fill:#142335;fill-opacity:1;fill-rule:nonzero;stroke:none"
         d="m 1673.2,601.5 c -66.2,0 -118.88,3.961 -126.52,13.23 -0.04,0.051 -0.08,0.09 -0.11,0.141 -0.02,0.02 -0.04,0.051 -0.06,0.07 v 0 c -0.06,0.09 -0.13,0.18 -0.2,0.27 -0.02,0.027 -0.04,0.07 -0.07,0.098 -0.04,0.062 -0.09,0.132 -0.13,0.191 -0.03,0.031 -0.05,0.059 -0.08,0.102 -0.04,0.058 -0.09,0.117 -0.13,0.187 -0.03,0.031 -0.05,0.063 -0.07,0.09 -0.06,0.09 -0.13,0.18 -0.19,0.269 -0.02,0.032 -0.04,0.063 -0.06,0.09 -0.05,0.063 -0.09,0.121 -0.13,0.184 -0.03,0.039 -0.06,0.078 -0.09,0.117 -0.04,0.063 -0.07,0.109 -0.11,0.16 -0.03,0.043 -0.06,0.082 -0.09,0.133 -0.03,0.047 -0.07,0.098 -0.1,0.148 -0.05,0.071 -0.1,0.149 -0.15,0.219 -0.04,0.051 -0.07,0.102 -0.11,0.16 -0.04,0.051 -0.07,0.102 -0.11,0.161 -0.02,0.039 -0.05,0.07 -0.07,0.109 -0.04,0.062 -0.08,0.121 -0.12,0.172 -0.02,0.039 -0.04,0.07 -0.06,0.097 -0.04,0.063 -0.08,0.122 -0.12,0.184 -0.01,0.008 -0.01,0.02 -0.02,0.027 -0.1,0.153 -0.2,0.301 -0.3,0.461 l -0.01,0.012 c -0.05,0.078 -0.09,0.148 -0.14,0.227 -0.01,0.011 -0.02,0.023 -0.03,0.043 -3.91,6.117 -6.85,12.878 -9,20.32 -0.01,0.027 -0.02,0.058 -0.03,0.09 -0.02,0.07 -0.04,0.148 -0.06,0.218 -0.02,0.059 -0.04,0.122 -0.05,0.18 -0.02,0.051 -0.03,0.09 -0.05,0.141 -0.03,0.121 -0.06,0.238 -0.09,0.359 -0.01,0.012 -0.01,0.02 -0.01,0.031 -0.04,0.11 -0.07,0.231 -0.1,0.348 0,0.012 -0.01,0.02 -0.01,0.02 -5.07,18.511 -5.42,41.011 -3.76,67.683 1.55,24.887 4.86,53.418 7.74,85.68 l 9.15,0.828 c 10.9,-63.781 23.26,-109.121 51.13,-141.91 16.39,-19.289 97.66,-30.27 185.23,-30.27 72.61,0 149.55,7.551 197.41,24.16 4.2,-8.289 0.11,-15.218 -15.13,-20.328 -0.01,-0.011 -0.02,-0.011 -0.03,-0.011 -0.01,-0.012 -0.02,-0.012 -0.03,-0.012 -1.21,-0.41 -2.49,-0.797 -3.84,-1.18 -3.66,-1.039 -7.77,-2.051 -12.31,-3.027 C 1892.7,609.75 1768.83,601.5 1673.2,601.5" /><path
         id="path426"
         style="fill:#1d3257;fill-opacity:1;fill-rule:nonzero;stroke:none"
         d="m 928.363,951.398 c 0,0 -49.808,-132.828 38.711,-211.066 C 1051.41,665.801 1124.94,554.66 1040.76,565.809 956.59,576.949 699.156,699.289 675.426,764.801 658.32,812 812.16,1014.78 812.16,1014.78 l 116.203,-63.382" /><path
         id="path428"
         style="fill:#ffffff;fill-opacity:1;fill-rule:nonzero;stroke:none"
         d="m 873.699,759.289 c 11.492,7.313 22.645,13.5 35.5,18.152 6.446,2.028 13.399,3.961 20.981,2.938 7.746,-0.797 14.644,-6.988 15.679,-13.82 -4.976,5.043 -10.511,6.832 -16.046,6.402 -5.637,-0.539 -11.567,-2.461 -17.547,-4.531 -12.008,-4 -24.782,-9 -38.567,-9.141" /><path
         id="path430"
         style="fill:#ffffff;fill-opacity:1;fill-rule:nonzero;stroke:none"
         d="m 893.277,736.41 c 11.489,7.309 22.641,13.5 35.496,18.149 6.446,2.031 13.399,3.961 20.985,2.941 7.742,-0.801 14.64,-6.988 15.676,-13.82 -4.973,5.039 -10.512,6.832 -16.039,6.402 -5.645,-0.543 -11.575,-2.461 -17.555,-4.531 -12.004,-4 -24.777,-9 -38.563,-9.141" /><path
         id="path432"
         style="fill:#7c99a1;fill-opacity:1;fill-rule:nonzero;stroke:none"
         d="m 1044.85,565.352 c -1.31,0.117 -2.68,0.269 -4.09,0.457 -8.72,1.16 -19.32,3.511 -31.31,6.863 v 0 c 11.99,-3.352 22.59,-5.703 31.31,-6.863 1.41,-0.188 2.77,-0.34 4.09,-0.457" /><path
         id="path434"
         style="fill:#142335;fill-opacity:1;fill-rule:nonzero;stroke:none"
         d="m 1051.37,565.051 c -2.04,0 -4.21,0.101 -6.52,0.301 -1.32,0.117 -2.68,0.269 -4.09,0.457 -8.72,1.16 -19.32,3.511 -31.31,6.863 -103.723,29.027 -312.755,133.41 -334.024,192.129 -0.903,2.48 -1.328,5.41 -1.328,8.711 0.007,27.957 30.675,83.148 63.101,133.699 l 15.86,-6.891 C 731.684,855.5 719.938,808.789 725.559,776.719 737.109,710.84 972.145,588.09 1065.67,567.32 c -3.81,-1.468 -8.53,-2.269 -14.3,-2.269" /><path
         id="path436"
         style="fill:#52afe6;fill-opacity:1;fill-rule:nonzero;stroke:none"
         d="m 1493.79,2659.97 c 0,0 231.31,-735.83 237.09,-947.95 5.78,-212.12 0,-900.711 0,-900.711 l -202.39,-18.278 c 0,0 -208.17,674.079 -109.87,918.989 0,0 -132.99,251 -179.26,378.97 -46.25,127.97 -147.03,503.46 -147.03,503.46 l 401.46,65.52" /><path
         id="path438"
         style="fill:#52afe6;fill-opacity:1;fill-rule:nonzero;stroke:none"
         d="m 1493.79,2659.97 c 0,0 231.31,-735.83 237.09,-947.95 5.78,-212.12 0,-900.711 0,-900.711 l -202.39,-18.278 c 0,0 -208.17,674.079 -109.87,918.989 0,0 -132.99,251 -179.26,378.97 -46.25,127.97 -147.03,503.46 -147.03,503.46 l 401.46,65.52" /><path
         id="path440"
         style="fill:#4ea1de;fill-opacity:1;fill-rule:nonzero;stroke:none"
         d="m 1528.49,793.031 c 0,0 -5.51,17.848 -14.31,48.77 -0.11,17.429 -8.02,48.168 -26.03,95.82 8.54,-32.902 16.36,-61.519 22.81,-84.43 -36.8,130.829 -118.73,448.069 -118.71,679.309 0.01,65.82 6.65,124.65 22.87,170.25 -44.81,-126.01 -16.53,-353.19 22.98,-549 -33.08,320.57 100.04,608.18 100.04,608.18 -70.07,56.03 -138.85,325.7 -173.12,478.77 l 33,212.31 c 63.35,12.74 115.87,30.5 146.01,41.88 12.61,-42.36 26.78,-90.67 41.54,-142.22 l -65.53,-113.45 c -7.23,-12.52 -10.65,-26.19 -10.63,-39.68 0.03,-27.37 14.25,-53.99 39.66,-68.66 0.39,-0.23 0.78,-0.45 1.17,-0.66 0.08,-0.05 0.15,-0.09 0.23,-0.13 0.02,-0.01 0.04,-0.02 0.07,-0.04 12.09,-6.64 25.18,-9.81 38.11,-9.81 20.24,0 40.07,7.76 54.97,22.05 45.81,-173.54 84.92,-344.6 87.26,-430.27 1.92,-70.64 2.57,-194.11 2.57,-327.4 0,-65.16 -0.15,-132.65 -0.39,-197.47 -0.71,-200.771 -2.18,-375.841 -2.18,-375.841 l -183.33,-16.559 -9.15,-0.828 h -0.06 l -9.85,-0.891 m -113.37,909.729 c 0.67,1.88 1.37,3.76 2.07,5.6 -0.71,-1.85 -1.4,-3.71 -2.07,-5.6 m 2.07,5.6 c 0.42,1.11 0.85,2.2 1.29,3.29 -0.44,-1.09 -0.87,-2.18 -1.29,-3.29 m 1.29,3.3 c 0.05,0.12 0.1,0.24 0.14,0.36 v 0 c -0.05,-0.12 -0.09,-0.24 -0.14,-0.36" /><path
         id="path442"
         style="fill:#4c90d4;fill-opacity:1;fill-rule:nonzero;stroke:none"
         d="m 1438.1,1153.75 c -39.51,195.81 -67.79,422.99 -22.98,549 v 0.01 c 0.67,1.89 1.36,3.75 2.07,5.6 v 0 c 0.42,1.11 0.85,2.2 1.29,3.29 v 0.01 c 0.05,0.12 0.09,0.24 0.14,0.36 v 0 0 0 0 c 0,0 -53.01,100.06 -103.74,206.03 l 50.14,322.65 c 34.27,-153.07 103.05,-422.74 173.12,-478.77 0,0 -133.12,-287.61 -100.04,-608.18" /><path
         id="path444"
         style="fill:#a2e1f8;fill-opacity:1;fill-rule:nonzero;stroke:none"
         d="m 1514.18,841.801 c -1.03,3.621 -2.11,7.418 -3.22,11.39 1.11,-3.972 2.19,-7.769 3.22,-11.39 v 0" /><path
         id="path446"
         style="fill:#4d97d8;fill-opacity:1;fill-rule:nonzero;stroke:none"
         d="m 1514.18,841.801 c -1.03,3.621 -2.11,7.418 -3.22,11.39 -6.45,22.911 -14.27,51.528 -22.81,84.43 18.01,-47.652 25.92,-78.391 26.03,-95.82" /><path
         id="path448"
         style="fill:#52afe6;fill-opacity:1;fill-rule:nonzero;stroke:none"
         d="M 1422.34,2609.5 1282.86,1712.02 921.449,827.199 733.516,908.809 c 0,0 -20.235,566.721 124.328,803.211 67.488,110.41 104.078,196.15 92.519,318.03 -11.562,121.87 -52.043,372.18 17.348,527.34 69.389,155.16 454.629,52.11 454.629,52.11" /><path
         id="path450"
         style="fill:#1e2f56;fill-opacity:1;fill-rule:nonzero;stroke:none"
         d="m 847.148,859.461 -94.089,40.859 v 0 l 94.086,-40.859 h 0.003" /><path
         id="path452"
         style="fill:#4ea1de;fill-opacity:1;fill-rule:nonzero;stroke:none"
         d="m 847.145,859.461 -94.086,40.859 -15.86,6.891 -3.683,1.598 c 0,0 -0.965,27 -0.969,71.671 -0.012,159.98 12.289,546.67 125.297,731.54 59.183,96.83 94.605,174.68 94.629,274.57 0.004,14.01 -0.688,28.46 -2.11,43.46 -6.527,68.79 -22.265,178.5 -22.261,288.92 0.003,58.69 4.453,117.57 17.097,170.63 26.383,-8.1 67.171,-18.98 124.241,-29.84 -22.37,-142.76 -7.81,-305.14 -4.64,-397.33 4.42,-128.7 -39.41,-216.11 -117.222,-327.22 -166.672,-238 -181.312,-834.12 -181.312,-834.12 l 80.879,-41.629" /><path
         id="path454"
         style="fill:#ffffff;fill-opacity:1;fill-rule:nonzero;stroke:none"
         d="m 934.395,2559 -26.985,-85 c 0,0 9.254,-48.34 55.926,-45 46.664,3.33 55.834,15 79.164,-19.17 21,-30.74 73.33,-20.83 102.5,1.21 27.29,20.63 51.67,8.71 73.33,-13.33 21.67,-22.05 70,-20.71 90,1.13 20,21.82 54.5,26.95 81.42,0 23.14,-23.18 73.58,-12.34 84.42,19.32 14.08,41.17 40.83,8.4 70.83,10.84 8.33,0.68 15,4.17 20.27,8.87 14.37,12.78 17.21,34.26 8.63,51.48 L 1550,2537.33 934.395,2559" /><path
         id="path456"
         style="fill:#f03762;fill-opacity:1;fill-rule:nonzero;stroke:none"
         d="m 1134.54,3316.12 c -82.48,-205.93 -50.58,-359.08 -50.58,-359.08 0,0 80.93,-101.15 242.76,-151.73 161.84,-50.57 447.2,-62.19 447.2,-62.19 0,0 1.62,117.85 54.94,162.11 l -460.92,213.42 c 0,0 -15.63,141.04 40.55,256.67 49.89,102.71 -180.95,173 -273.95,-59.2" /><path
         id="path458"
         style="fill:#ffffff;fill-opacity:1;fill-rule:nonzero;stroke:none"
         d="m 1466.02,3484.05 c 0,0 21.06,-28.43 15.65,-45.72 -4.5,-14.36 -38.54,-16.25 -46.04,-12.29 -7.5,3.96 30.39,58.01 30.39,58.01" /><path
         id="path460"
         style="fill:#ef2e55;fill-opacity:1;fill-rule:nonzero;stroke:none"
         d="m 1773.92,2743.12 c 0,0 -97.8,3.98 -211.37,17.43 l -8.14,119 c 0,0 -9.29,4.96 -24.11,13.2 l -16.97,158.58 315.53,-146.1 c -4.75,-3.95 -9.1,-8.48 -13.07,-13.47 -25.8,-32.39 -35.72,-83.78 -39.52,-116.85 -2.17,-18.88 -2.35,-31.79 -2.35,-31.79" /><path
         id="path462"
         style="fill:#f03762;fill-opacity:1;fill-rule:nonzero;stroke:none"
         d="m 1296.84,3660.93 c 0,0 38.68,-171.82 170.17,-176.88 l 104.68,-978.01 c 0,0 -198.99,-89.25 -391.17,-63.97 -192.192,25.29 -273.106,60.69 -273.106,60.69 0,0 15.063,452.04 75.856,667.59 55.64,197.24 177.01,429.88 313.57,490.58" /><path
         id="path464"
         style="fill:#2c3a92;fill-opacity:1;fill-rule:nonzero;stroke:none"
         d="m 2690.03,3617.46 c -170.92,-243.38 -397.97,-377.88 -568.71,-371.41 -17.82,0.67 -25.01,-22.49 -9.7,-31.66 l 96.62,-57.86 c 166.18,-117.81 401.7,51.39 611.56,371.59 198.37,302.68 263.66,678.92 97.48,796.73 -6.46,4.58 -13.18,8.68 -20.08,12.42 l -41.34,25.56 c -14.33,8.87 -31.43,-6.76 -23.59,-21.68 84.88,-161.61 40.54,-463.4 -142.24,-723.69" /><path
         id="path466"
         style="fill:#2c3a92;fill-opacity:1;fill-rule:nonzero;stroke:none"
         d="m 2753.94,4432.65 -0.22,0.14 -0.02,-0.03 z" /><path
         id="path468"
         style="fill:#252c61;fill-opacity:1;fill-rule:nonzero;stroke:none"
         d="m 2912.54,4335.31 c -37.5,21.65 -81.91,29.69 -130.33,21.78 32.56,0.8 46.68,-3.71 71.63,-21.01 113.83,-78.96 117.64,-396.86 -68.58,-719.41 -186.22,-322.54 -460.02,-524.6 -611.54,-437.12 -13.23,7.63 -1.98,5.73 -12.49,16.93 15.69,-24.16 35.37,-43.69 59.29,-57.49 159.8,-92.27 444.27,101.26 635.37,432.25 191.1,330.99 216.46,671.81 56.65,764.07" /><path
         id="path470"
         style="fill:#e6f6fd;fill-opacity:1;fill-rule:nonzero;stroke:none"
         d="m 2181.72,3170.07 c -6.7,2.69 -13.22,5.85 -19.52,9.48 -10.76,6.22 -20.63,13.68 -29.59,22.27 l 44.6,-26.71 c 1.48,-1.71 2.98,-3.39 4.51,-5.04 m -76.74,66.25 c -81.93,132.66 -37.56,412.68 120.04,685.65 155.6,269.51 372.35,446.87 527.82,446.87 19.97,0 38.92,-2.92 56.61,-8.95 -8.92,-0.37 -18.01,-1.3 -27.24,-2.8 2.34,0.05 4.59,0.08 6.75,0.08 17.36,0 29.27,-1.95 41.37,-7.29 -0.18,-2.81 0.39,-5.78 1.94,-8.73 7.62,-14.5 14.19,-30.14 19.72,-46.77 -19.15,9.91 -40.78,14.67 -64.22,14.67 -124.31,0 -299.88,-133.65 -431.32,-340.43 -31.19,-49.07 -57.58,-98.64 -79.01,-147.21 18.6,38.76 40.24,77.95 64.96,116.83 131.43,206.77 307.01,340.43 431.33,340.43 27.35,0 52.22,-6.46 73.59,-20.05 6.24,-3.97 12.05,-8.47 17.45,-13.47 32.79,-169.24 -23.72,-412.63 -174.74,-627.69 -127.55,-181.63 -286.37,-302.62 -429.71,-349.64 -25.43,0.95 -48.98,7.25 -69.96,19.36 -52.06,30.06 -80.98,91.66 -87.8,172.52 -6.48,-90.14 8.15,-165.28 44.97,-213.56 -4.82,-0.21 -9.6,-0.31 -14.34,-0.31 -3.99,0 -7.94,0.07 -11.87,0.22 -0.26,0.01 -0.51,0.01 -0.76,0.01 -7.45,0 -12.95,-4.21 -15.58,-9.74" /><path
         id="path472"
         style="fill:#bbbbe1;fill-opacity:1;fill-rule:nonzero;stroke:none"
         d="m 2254.09,3159.1 c -29.32,0 -56.37,6.59 -80.37,20.45 -0.14,0.08 -0.27,0.16 -0.4,0.23 -2.51,3.11 -4.94,6.32 -7.28,9.62 -0.5,1.61 -1.7,3.77 -4.81,7.08 1.57,-2.41 3.17,-4.77 4.81,-7.08 1.17,-3.77 -1.56,-4.45 7.28,-9.62 1.27,-1.58 2.57,-3.14 3.89,-4.67 l -44.6,26.71 c -10.42,10 -19.62,21.55 -27.63,34.5 2.63,5.53 8.13,9.74 15.58,9.74 0.25,0 0.5,0 0.76,-0.01 3.93,-0.15 7.88,-0.22 11.87,-0.22 4.74,0 9.52,0.1 14.34,0.31 11.93,-15.65 26.2,-28.47 42.83,-38.08 22.83,-13.18 48.71,-19.48 76.74,-19.48 142.49,0 341.13,162.53 483.74,409.56 106.69,184.79 156.76,373.1 145.38,507.91 -8.95,-124.58 -58.21,-277.83 -145.38,-428.8 -142.6,-247 -341.25,-409.55 -483.74,-409.55 -2.28,0 -4.53,0.04 -6.78,0.12 143.34,47.02 302.16,168.01 429.71,349.64 151.02,215.06 207.53,458.45 174.74,627.69 24.27,-22.5 39.99,-55.14 47.66,-95.08 2.8,-7.23 5.25,-14.82 7.33,-22.75 1.43,20.68 1.43,40.34 -0.01,58.82 -2.21,28.24 -11.63,55.86 -29.77,77.6 -8.28,9.91 -17.8,18.39 -28.61,25.26 -3.05,1.93 -6.18,3.73 -9.38,5.38 -5.53,16.63 -12.1,32.27 -19.72,46.77 -1.55,2.95 -2.12,5.92 -1.94,8.73 6.98,-3.08 14.02,-7.29 22.2,-12.9 20.06,-15.24 36.37,-35.44 48.98,-59.81 24.84,-50.81 35.99,-123.76 30.51,-210.17 -10.92,-134.82 -64.59,-299.58 -158.27,-461.83 -146.94,-254.51 -348.41,-426.84 -501.31,-445.24 -6.21,-0.55 -12.32,-0.83 -18.35,-0.83" /><path
         id="path474"
         style="fill:#b4b6d4;fill-opacity:1;fill-rule:nonzero;stroke:none"
         d="m 2245.93,3158.3 c -22.86,0 -44.39,3.83 -64.21,11.77 -1.53,1.65 -3.03,3.33 -4.51,5.04 -1.32,1.53 -2.62,3.09 -3.89,4.67 0.13,-0.07 0.26,-0.15 0.4,-0.23 24,-13.86 51.05,-20.45 80.37,-20.45 6.03,0 12.14,0.28 18.35,0.83 -9.01,-1.08 -17.85,-1.63 -26.51,-1.63 m -72.61,21.48 c -8.84,5.17 -6.11,5.85 -7.28,9.62 2.34,-3.3 4.77,-6.51 7.28,-9.62 m -7.28,9.62 c -1.64,2.31 -3.24,4.67 -4.81,7.08 3.11,-3.31 4.31,-5.47 4.81,-7.08 m 765.98,877.6 c 5.48,86.41 -5.67,159.36 -30.51,210.17 27.41,-52.98 37.36,-125.69 30.51,-210.17 m -79.49,269.98 c -8.18,5.61 -15.22,9.82 -22.2,12.9 -12.1,5.34 -24.01,7.29 -41.37,7.29 -2.16,0 -4.41,-0.03 -6.75,-0.08 9.23,1.5 18.32,2.43 27.24,2.8 9.41,-3.21 18.47,-7.3 27.12,-12.3 5.56,-3.21 10.88,-6.75 15.96,-10.61" /><path
         id="path476"
         style="fill:#ceddf2;fill-opacity:1;fill-rule:nonzero;stroke:none"
         d="m 2147.53,3246.14 c -36.82,48.28 -51.45,123.42 -44.97,213.56 6.82,-80.86 35.74,-142.46 87.8,-172.52 20.98,-12.11 44.53,-18.41 69.96,-19.36 -39.07,-12.81 -76.97,-20.12 -112.79,-21.68" /><path
         id="path478"
         style="fill:#a9a9d8;fill-opacity:1;fill-rule:nonzero;stroke:none"
         d="m 2267.1,3188.58 c -28.03,0 -53.91,6.3 -76.74,19.48 -16.63,9.61 -30.9,22.43 -42.83,38.08 35.82,1.56 73.72,8.87 112.79,21.68 2.25,-0.08 4.5,-0.12 6.78,-0.12 142.49,0 341.14,162.55 483.74,409.55 87.17,150.97 136.43,304.22 145.38,428.8 11.38,-134.81 -38.69,-323.12 -145.38,-507.91 -142.61,-247.03 -341.25,-409.56 -483.74,-409.56" /><path
         id="path480"
         style="fill:#fcfdfe;fill-opacity:1;fill-rule:nonzero;stroke:none"
         d="m 2277.44,3821.41 c 21.43,48.57 47.82,98.14 79.01,147.21 131.44,206.78 307.01,340.43 431.32,340.43 23.44,0 45.07,-4.76 64.22,-14.67 5.18,-15.57 9.44,-32.01 12.78,-49.23 -5.4,5 -11.21,9.5 -17.45,13.47 -21.37,13.59 -46.24,20.05 -73.59,20.05 -124.32,0 -299.9,-133.66 -431.33,-340.43 -24.72,-38.88 -46.36,-78.07 -64.96,-116.83" /><path
         id="path482"
         style="fill:#fbfcfe;fill-opacity:1;fill-rule:nonzero;stroke:none"
         d="m 2919.76,4127.32 c -2.08,7.93 -4.53,15.52 -7.33,22.75 -7.67,39.94 -23.39,72.58 -47.66,95.08 -3.34,17.22 -7.6,33.66 -12.78,49.23 3.2,-1.65 6.33,-3.45 9.38,-5.38 10.81,-6.87 20.33,-15.35 28.61,-25.26 18.14,-21.74 27.56,-49.36 29.77,-77.6 1.44,-18.48 1.44,-38.14 0.01,-58.82" /><path
         id="path484"
         style="fill:#2c3a92;fill-opacity:1;fill-rule:nonzero;stroke:none"
         d="m 2293.08,3897.57 c 174.35,303.56 437.91,485.2 616.47,435.93 2.35,-0.66 3.61,2.56 1.43,3.67 l -114.53,58.36 c -176.19,102.24 -473.59,-83.99 -664.27,-415.97 -190.69,-331.99 -202.44,-683.99 -26.26,-786.24 6.86,-3.98 13.92,-7.45 21.13,-10.55 l 128.4,-64.09 c -164.09,110.7 -148.81,454.3 37.63,778.89" /><path
         id="path486"
         style="fill:#2c3a92;fill-opacity:1;fill-rule:nonzero;stroke:none"
         d="m 2302.82,3095.03 0.24,-0.11 0.02,0.04 z" /><path
         id="path488"
         style="fill:#424ca8;fill-opacity:1;fill-rule:nonzero;stroke:none"
         d="m 2156.05,3022.35 c -6.03,-10.43 -41.71,-1.12 -79.69,20.81 -37.98,21.93 -63.89,48.17 -57.86,58.61 6.02,10.43 41.7,1.12 79.68,-20.81 37.99,-21.94 63.89,-48.17 57.87,-58.61" /><path
         id="path490"
         style="fill:#252c61;fill-opacity:1;fill-rule:nonzero;stroke:none"
         d="m 1675.88,2440.73 70.83,-40.9 440.64,763.21 c -25.48,9.78 -49.27,23.49 -70.5,40.63 l -0.34,0.27 -440.63,-763.21" /><path
         id="path492"
         style="fill:#424ca8;fill-opacity:1;fill-rule:nonzero;stroke:none"
         d="m 2132.1,3034.11 h -8.63 l -2.41,1.29 c 5.72,2.27 -2.67,8.2 -2.67,8.2 -47.79,11.56 -70.5,41.46 -70.5,41.46 0,0 -6.4,1.79 -6.6,-0.84 l -20.44,7.23 c 0,0 16.56,-32.94 55.51,-48.29 11.07,-5.58 25.31,-11.43 32.01,-12.91 16.62,-6.21 23.73,3.86 23.73,3.86" /><path
         id="path494"
         style="fill:#2c3a92;fill-opacity:1;fill-rule:nonzero;stroke:none"
         d="m 1549.07,2130.88 c -37.93,21.9 -50.92,70.41 -29.03,108.34 l 498.82,863.66 c 0,0 -7.58,-24.14 59.05,-57.45 51.8,-25.9 79.47,-19.55 79.47,-19.55 l -499.97,-865.97 c -21.9,-37.94 -70.4,-50.93 -108.34,-29.03" /><path
         id="path496"
         style="fill:#3168b7;fill-opacity:1;fill-rule:nonzero;stroke:none"
         d="m 1550.54,2130.05 c -0.03,0.02 -0.05,0.03 -0.07,0.04 0.02,-0.01 0.04,-0.02 0.07,-0.04 m -0.3,0.17 c -0.39,0.21 -0.78,0.43 -1.17,0.66 -25.41,14.67 -39.63,41.29 -39.66,68.66 0.03,-27.37 14.25,-53.99 39.66,-68.66 0.39,-0.22 0.78,-0.45 1.17,-0.66" /><path
         id="path498"
         style="fill:#6d8fbd;fill-opacity:1;fill-rule:nonzero;stroke:none"
         d="m 1585.57,2352.67 v 0 l 235.44,407.65 v 0 l -235.44,-407.65 m 328.46,568.71 v 0 l 104.83,181.51 v -0.01 l -104.83,-181.5" /><path
         id="path500"
         style="fill:#926682;fill-opacity:1;fill-rule:nonzero;stroke:none"
         d="m 1821.01,2760.32 v 0 l 93.02,161.06 v 0 l -93.02,-161.06" /><path
         id="path502"
         style="fill:#3168b7;fill-opacity:1;fill-rule:nonzero;stroke:none"
         d="m 1520.04,2239.22 65.53,113.45 v 0 l -65.53,-113.45" /><path
         id="path504"
         style="fill:#6d8fbd;fill-opacity:1;fill-rule:nonzero;stroke:none"
         d="m 2018.71,3102.11 c 0.04,0.3 0.09,0.52 0.12,0.64 -0.03,-0.12 -0.08,-0.34 -0.12,-0.63 0,-0.01 0,-0.01 0,-0.01" /><path
         id="path506"
         style="fill:#2e3c95;fill-opacity:1;fill-rule:nonzero;stroke:none"
         d="m 2027.78,3080.71 c -9.52,11.32 -9.41,19.02 -9.07,21.4 0,0 0,0 0,0.01 -0.2,-1.52 -0.31,-5.23 2.15,-10.68 l -0.01,0.01 c 0,0 0.03,-0.05 0.08,-0.15 1.27,-2.79 3.22,-6.02 6.15,-9.64 0.23,-0.31 0.46,-0.63 0.7,-0.95" /><path
         id="path508"
         style="fill:#2e3c95;fill-opacity:1;fill-rule:nonzero;stroke:none"
         d="m 2063.87,3052.92 c -18.55,10.59 -29.58,20.03 -36.09,27.79 -0.24,0.32 -0.47,0.64 -0.7,0.95 6.41,-7.92 17.56,-17.69 36.82,-28.7 l -0.03,-0.04 m -42.94,38.38 c -0.05,0.1 -0.08,0.15 -0.08,0.15 l 0.01,-0.01 c 0.03,-0.05 0.05,-0.09 0.07,-0.14" /><path
         id="path510"
         style="fill:#2b357e;fill-opacity:1;fill-rule:nonzero;stroke:none"
         d="m 1588.53,2120.28 c -12.89,0 -25.94,3.15 -37.99,9.77 -0.03,0.02 -0.05,0.03 -0.07,0.04 -0.08,0.04 -0.15,0.08 -0.23,0.13 -0.39,0.21 -0.78,0.44 -1.17,0.66 -25.41,14.67 -39.63,41.29 -39.66,68.66 -0.02,13.49 3.4,27.16 10.63,39.68 v 0 l 65.53,113.45 235.44,407.65 93.02,161.06 104.83,181.5 c -0.01,-0.02 -0.02,-0.06 -0.03,-0.13 -0.03,-0.12 -0.08,-0.34 -0.12,-0.64 -0.34,-2.38 -0.45,-10.08 9.07,-21.4 6.51,-7.76 17.54,-17.2 36.09,-27.79 l -469.95,-813.7 c -21.9,-37.93 -8.91,-86.44 29.02,-108.34 0.9,-0.52 1.83,-0.93 2.75,-1.41 -11.44,-6.02 -24.22,-9.19 -37.16,-9.19" /><path
         id="path512"
         style="fill:#f8a090;fill-opacity:1;fill-rule:nonzero;stroke:none"
         d="m 1814.2,2782.12 c 67.36,0 44.8,69.93 107.96,152.25 0,0 -13.51,5.22 -41.52,-13.54 -28.01,-18.75 -61.11,-47.36 -61.11,-47.36 l 4.51,-31.58" /><path
         id="path514"
         style="fill:#f8a090;fill-opacity:1;fill-rule:nonzero;stroke:none"
         d="m 2032.17,2872.2 c 2.16,3.99 7.23,5.3 11.4,3.53 7.72,-3.29 22.11,-11.44 32.55,-29.36 15.25,-26.19 -20.69,-34.92 -20.69,-34.92 0,0 -32.84,43.03 -23.26,60.75" /><path
         id="path516"
         style="fill:#f8a090;fill-opacity:1;fill-rule:nonzero;stroke:none"
         d="m 2009.85,2845.58 c 2.36,4.35 7.94,5.82 12.23,3.34 9.7,-5.6 30.05,-19.39 41.82,-42.06 16.65,-32.08 -24.66,-41.65 -24.66,-41.65 0,0 -41.39,58.25 -29.39,80.37" /><path
         id="path518"
         style="fill:#f8a090;fill-opacity:1;fill-rule:nonzero;stroke:none"
         d="m 1989.48,2818.54 c 2.49,2.75 6.62,3.29 9.99,1.73 8.84,-4.07 27.95,-14.75 40.47,-35.29 18.8,-30.87 -28.72,-41.65 -28.72,-41.65 0,0 -38.87,56.24 -21.74,75.21" /><path
         id="path520"
         style="fill:#f8a090;fill-opacity:1;fill-rule:nonzero;stroke:none"
         d="m 1976.56,2782.8 c 0,0 24.35,-2.67 34.09,-28.09 9.74,-25.43 -18.57,-31.38 -18.57,-31.38 0,0 -37.61,49.28 -15.52,59.47" /><path
         id="path522"
         style="fill:#f8a090;fill-opacity:1;fill-rule:nonzero;stroke:none"
         d="m 1631.2,2804.26 c 0,0 81.96,-40.98 116.11,-34.15 34.16,6.82 41.26,35.84 80.26,34.15 18.83,-0.82 -27.86,-47.81 6.29,-73.43 34.15,-25.62 101.72,-14.51 155.93,0 15.26,4.09 6.2,-43.54 -20.49,-59.77 -22.79,-13.85 -11.95,-39.27 -22.2,-51.22 -10.24,-11.95 -70.01,-46.11 -136.6,-11.95 -66.6,34.15 -151.98,54.64 -151.98,54.64 l -27.32,141.73" /><path
         id="path524"
         style="fill:#b4cade;fill-opacity:1;fill-rule:nonzero;stroke:none"
         d="m 1574.4,2587.24 c 0,0 -4.11,0.75 -11.64,2.31 l -18.55,173.24 c 6.15,-0.77 12.26,-1.52 18.34,-2.24 l 11.85,-173.31" /><path
         id="path526"
         style="fill:#ee284b;fill-opacity:1;fill-rule:nonzero;stroke:none"
         d="m 1562.55,2760.55 c -6.08,0.72 -12.19,1.47 -18.34,2.24 l -13.91,129.96 c 14.82,-8.24 24.11,-13.2 24.11,-13.2 l 8.14,-119" /><path
         id="path528"
         style="fill:#ef2e55;fill-opacity:1;fill-rule:nonzero;stroke:none"
         d="m 1562.76,2589.55 c -75.88,15.71 -498.68,113.59 -554.16,354.62 -16.424,71.34 -5.97,95.45 15.65,95.45 45.05,0 138.56,-104.59 138.56,-104.59 l 177.38,318.03 c 0,0 -40.15,-175.46 -6.71,-224.83 25.41,-37.52 144.96,-106.62 196.82,-135.48 l 13.91,-129.96 18.55,-173.24" /><path
         id="path530"
         style="fill:#f03762;fill-opacity:1;fill-rule:nonzero;stroke:none"
         d="m 1316.94,3570.23 v 0 c 0,0 -171.23,-49.44 -264.23,-281.64 -33.19,-82.89 -45.66,-172.56 -48.72,-250.14 -6.08,-154.32 73.99,-226.85 233.54,-307.84 116.25,-59 468.1,-109.75 468.1,-109.75 0,0 1.62,117.85 54.94,162.11 l -487.99,213.43 c 0,0 11.44,141.03 67.61,256.66 49.9,102.71 42.64,223.9 -23.25,317.17" /><path
         id="path532"
         style="fill:#ffffff;fill-opacity:1;fill-rule:nonzero;stroke:none"
         d="m 1298.2,3728.73 c 0,0 -69.52,-51.43 -31.23,-183.6 38.3,-132.17 180.73,-142.74 198.45,-60.29 0,0 -83.67,7.48 -138.29,99.5 0,0 -32.69,64.65 -28.93,144.39" /><path
         id="path534"
         style="fill:#1d3257;fill-opacity:1;fill-rule:nonzero;stroke:none"
         d="m 1127.1,3717.02 175.01,128.56 153.96,-33.57 c 0,0 -17.63,-143.22 -153.96,-203.26 -136.34,-60.04 -89.62,-137.25 -62.56,-218.44 27.07,-81.2 -17.14,-157.78 -127.1,-186.37 -129.18,-33.59 -23.35,-214.78 -205.04,-233.98 -153.547,-16.23 -128.699,147.77 -262.941,148.15 -96.246,0.27 262.941,260.59 262.941,260.59 l 219.69,338.32" /><path
         id="path536"
         style="fill:#7fb1cb;fill-opacity:1;fill-rule:nonzero;stroke:none"
         d="m 1346.72,4071.64 c 0.04,0.04 0.1,0.09 0.14,0.13 -0.05,-0.05 -0.09,-0.08 -0.14,-0.13 m 0.32,0.28 c 0.06,0.05 0.12,0.1 0.18,0.15 -0.06,-0.05 -0.12,-0.1 -0.18,-0.15 m 0.23,0.2 c 0.16,0.14 0.31,0.27 0.47,0.41 -0.16,-0.14 -0.31,-0.27 -0.47,-0.41 m 0.52,0.45 c 2.03,1.75 4.06,3.45 6.1,5.08 -2.04,-1.64 -4.07,-3.33 -6.1,-5.08 m 6.18,5.14 c 0.23,0.18 0.46,0.37 0.69,0.56 -0.23,-0.18 -0.47,-0.38 -0.69,-0.56 m 0.86,0.69 c 0.05,0.04 0.1,0.08 0.15,0.12 -0.05,-0.04 -0.1,-0.08 -0.15,-0.12 m 0.42,0.33 c 0.02,0.02 0.05,0.04 0.07,0.06 -0.02,-0.02 -0.05,-0.04 -0.07,-0.06" /><path
         id="path538"
         style="fill:#182744;fill-opacity:1;fill-rule:nonzero;stroke:none"
         d="m 560.254,3159.39 -1.117,0.82 v 0 c -12.5,9.57 -23.782,20.97 -33.828,33.8 -100.606,128.52 -77.899,401.39 79.339,433.43 172.942,35.24 145.633,110.4 209.352,198.39 34.898,48.19 93.461,56.33 157.477,56.33 16.328,0 33.023,-0.53 49.763,-1.06 16.74,-0.53 33.54,-1.06 50.08,-1.06 20.44,0 40.5,0.81 59.61,3.43 110.61,15.17 106.44,92.36 215.46,187.88 0.11,0.1 0.22,0.19 0.33,0.29 0.05,0.05 0.09,0.08 0.14,0.13 0.06,0.05 0.12,0.1 0.18,0.15 0.06,0.05 0.12,0.1 0.18,0.15 0.01,0.02 0.03,0.03 0.05,0.05 0.16,0.14 0.31,0.27 0.47,0.41 0.02,0.02 0.04,0.03 0.05,0.04 2.03,1.75 4.06,3.44 6.1,5.08 0.03,0.03 0.05,0.04 0.08,0.06 0.22,0.18 0.46,0.38 0.69,0.56 0.06,0.04 0.11,0.09 0.17,0.13 0.05,0.04 0.1,0.08 0.15,0.12 0.09,0.07 0.18,0.14 0.27,0.21 0.02,0.02 0.05,0.04 0.07,0.06 30.29,23.93 62.12,36.37 92.22,41.97 -9.67,-5.23 -19.28,-11.35 -28.69,-18.51 -0.56,-0.19 -1.12,-0.39 -1.68,-0.59 -53.92,-19.38 -79.84,-62.16 -91.21,-110.49 -43.64,-70.6 -58.27,-120.5 -143.19,-142.25 -114.88,-29.41 -270.872,1.32 -327.438,-99.25 C 798.766,3649.11 836.688,3573.11 658.473,3514.96 535.086,3474.7 511,3296.58 560.254,3159.39" /><path
         id="path540"
         style="fill:#182744;fill-opacity:1;fill-rule:nonzero;stroke:none"
         d="m 1325.96,3991.17 c 11.37,48.33 37.29,91.11 91.21,110.49 0.56,0.2 1.12,0.4 1.68,0.59 -10.82,-8.21 -21.38,-17.8 -31.51,-28.95 -26.98,-29.74 -45.98,-57.22 -61.38,-82.13" /><path
         id="path542"
         style="fill:#141514;fill-opacity:1;fill-rule:nonzero;stroke:none"
         d="m 3840.2,288.711 c -4.32,-4.422 -8.03,-9.313 -11.09,-14.531 l -4.65,2.41 c -0.66,2.98 -3.48,5.031 -6.59,4.672 -3.3,-0.391 -5.67,-3.391 -5.28,-6.703 0.39,-3.309 3.39,-5.68 6.7,-5.289 l 1.83,0.519 4.51,-2.34 c -2.5,-5.539 -4.32,-11.39 -5.39,-17.437 l 7.47,-1.313 c 2.3,13.063 8.49,25.063 17.92,34.723 l -5.43,5.289" /><path
         id="path544"
         style="fill:#141514;fill-opacity:1;fill-rule:nonzero;stroke:none"
         d="m 3895.08,311.742 c -1.71,0 -3.41,-0.07 -5.1,-0.183 l -0.73,6.261 c 1.87,1.5 2.96,3.899 2.65,6.45 -0.46,3.929 -4.02,6.75 -7.95,6.289 -3.93,-0.469 -6.74,-4.028 -6.28,-7.957 0.3,-2.543 1.89,-4.61 4.05,-5.641 l 0.73,-6.242 c -7.14,-1.16 -14.03,-3.321 -20.59,-6.457 l 3.27,-6.84 c 9.33,4.469 19.41,6.726 29.95,6.726 4.96,0 9.93,-0.527 14.74,-1.566 l 1.62,7.406 c -5.36,1.153 -10.86,1.754 -16.36,1.754" /><path
         id="path546"
         style="fill:#141514;fill-opacity:1;fill-rule:nonzero;stroke:none"
         d="m 3961.1,286.262 c 3.31,0.41 5.67,3.418 5.26,6.73 -0.41,3.309 -3.42,5.649 -6.72,5.25 -3.1,-0.383 -5.36,-3.031 -5.3,-6.082 l -4.16,-3.629 c -4.18,4.289 -8.9,8.117 -14.09,11.379 l -4.03,-6.398 c 11.34,-7.153 20.21,-17.274 25.64,-29.262 l 6.9,3.121 c -2.51,5.551 -5.67,10.731 -9.42,15.449 l 4.02,3.52 1.9,-0.078" /><path
         id="path548"
         style="fill:#141514;fill-opacity:1;fill-rule:nonzero;stroke:none"
         d="m 3889.6,209.648 c -3.86,-0.238 -7.74,-0.339 -11.57,-0.339 -8.8,0 -17.33,0.601 -24.79,1.781 -3.89,0.629 -8.45,1.562 -12.69,2.922 10.46,-18.602 30.69,-31.25 53.87,-31.25 28.56,0 52.63,19.16 59.51,45.039 -6.82,-4.492 -15.06,-8.25 -24.59,-11.231 -11.79,-3.672 -25.55,-6.058 -39.74,-6.922" /><path
         id="path550"
         style="fill:#141514;fill-opacity:1;fill-rule:nonzero;stroke:none"
         d="m 3920.86,240.512 c -7.5,0 -13.6,6.097 -13.6,13.597 0,7.5 6.1,13.602 13.6,13.602 7.5,0 13.6,-6.102 13.6,-13.602 0,-7.5 -6.1,-13.597 -13.6,-13.597 z m -47.37,-9.082 c -10.21,0 -18.5,8.3 -18.5,18.492 0,10.199 8.29,18.5 18.5,18.5 10.19,0 18.49,-8.301 18.49,-18.5 0,-10.192 -8.3,-18.492 -18.49,-18.492 z m 21.59,65.14 c -33.53,0 -60.8,-26.66 -60.8,-59.429 0,-4.262 0.47,-8.493 1.37,-12.621 6.74,-4.821 27.06,-8.899 53.48,-7.301 28.79,1.73 52.97,9.57 66.72,21.582 -0.06,1.949 -0.21,3.91 -0.45,5.82 -3.81,29.621 -29.74,51.949 -60.32,51.949" /><path
         id="path552"
         style="fill:#141514;fill-opacity:1;fill-rule:nonzero;stroke:none"
         d="m 4055.11,277.898 c -2.94,1.161 -8.05,3.094 -13.82,2.372 -5.51,-0.68 -8.44,-3.399 -8.44,-10.059 v -8.66 h 22.28 v -17.18 h -22.28 v -54.539 h -19.31 v 54.539 h -13.4 v 17.18 h 13.4 v 8.879 c 0,16.812 8.95,27.832 25.68,27.832 6.42,0 11.57,-1.223 15.9,-3.082 l -0.01,-17.282" /><path
         id="path554"
         style="fill:#141514;fill-opacity:1;fill-rule:nonzero;stroke:none"
         d="m 4102.14,244.582 c -1.77,0.297 -3.58,0.469 -5.26,0.469 -8.96,0 -15.1,-5.481 -15.1,-16.141 v -39.078 h -19.32 v 71.719 h 18.72 v -7.852 c 4.52,6.742 11.41,9.781 20.22,9.781 4.14,0 8.47,-1.281 10.93,-3.371 l -10.19,-15.527" /><path
         id="path556"
         style="fill:#141514;fill-opacity:1;fill-rule:nonzero;stroke:none"
         d="m 4127.67,232.461 h 31.74 c -1.76,9.18 -7.32,14.359 -15.61,14.359 -9.1,0 -14.43,-5.468 -16.13,-14.359 z m 51.14,-6.66 c 0,-2.219 -0.15,-4.879 -0.37,-6.512 h -50.84 c 2.07,-10.359 9.32,-14.879 18.43,-14.879 6.21,0 12.94,2.512 18.12,6.879 l 11.33,-12.43 c -8.15,-7.468 -18.51,-10.879 -30.57,-10.879 -21.98,0 -37.22,14.95 -37.22,37.532 0,22.57 14.8,37.968 36.26,37.968 20.65,0 34.79,-15.332 34.86,-37.679" /><path
         id="path558"
         style="fill:#141514;fill-opacity:1;fill-rule:nonzero;stroke:none"
         d="m 4204.2,232.461 h 31.75 c -1.77,9.18 -7.33,14.359 -15.62,14.359 -9.1,0 -14.43,-5.468 -16.13,-14.359 z m 51.14,-6.66 c 0,-2.219 -0.14,-4.879 -0.37,-6.512 h -50.85 c 2.08,-10.359 9.33,-14.879 18.44,-14.879 6.21,0 12.95,2.512 18.13,6.879 l 11.32,-12.43 c -8.14,-7.468 -18.5,-10.879 -30.56,-10.879 -21.99,0 -37.23,14.95 -37.23,37.532 0,22.57 14.8,37.968 36.26,37.968 20.65,0 34.79,-15.332 34.86,-37.679" /><path
         id="path560"
         style="fill:#141514;fill-opacity:1;fill-rule:nonzero;stroke:none"
         d="m 4282.03,225.719 c 0,-11.321 7.47,-19.75 18.43,-19.75 11.4,0 18.5,8.812 18.5,19.75 0,10.961 -7.1,19.773 -18.5,19.773 -10.96,0 -18.43,-8.441 -18.43,-19.773 z m 56.77,0 c 0,-21.528 -14.95,-37.739 -34.72,-37.739 -9.62,0 -16.42,3.782 -21.08,9.321 v -37.082 h -19.25 v 101.332 h 18.88 v -7.922 c 4.66,5.84 11.54,9.851 21.38,9.851 19.84,0 34.79,-16.21 34.79,-37.761" /><path
         id="path562"
         style="fill:#141514;fill-opacity:1;fill-rule:nonzero;stroke:none"
         d="m 4367.25,189.832 h -19.32 v 71.719 h 19.32 z m 2.58,95.18 c 0,-6.953 -5.4,-12.293 -12.36,-12.293 -6.95,0 -12.28,5.34 -12.28,12.293 0,6.957 5.33,12.429 12.28,12.429 6.96,0 12.36,-5.472 12.36,-12.429" /><path
         id="path564"
         style="fill:#141514;fill-opacity:1;fill-rule:nonzero;stroke:none"
         d="m 4399.48,236.02 27.01,25.531 h 23.7 l -34.8,-33.75 35.01,-37.969 h -23.76 l -27.16,29.02 v -29.02 h -19.31 V 296.41 h 19.31 v -60.39" /><path
         id="path566"
         style="fill:#141514;fill-opacity:1;fill-rule:nonzero;stroke:none"
         d="m 3083.29,209.672 v 32.078 c -3.96,6.148 -12.46,11.422 -21.24,11.422 -14.21,0 -22.71,-11.711 -22.71,-27.391 0,-15.672 8.5,-27.242 22.71,-27.242 8.78,0 17.28,4.981 21.24,11.133 z m 0,-19.192 v 10.551 c -5.28,-7.179 -13.92,-12.312 -23.88,-12.312 -18.46,0 -31.49,14.062 -31.49,37.062 0,22.559 12.89,37.211 31.49,37.211 9.52,0 18.16,-4.691 23.88,-12.453 v 37.641 h 10.98 v -97.7 h -10.98" /><path
         id="path568"
         style="fill:#141514;fill-opacity:1;fill-rule:nonzero;stroke:none"
         d="m 3143.19,253.91 c -15.08,0 -22.56,-12.75 -23.14,-23.59 h 46.43 c -0.14,10.551 -7.17,23.59 -23.29,23.59 z m -34.71,-27.98 c 0,20.511 14.65,37.062 34.86,37.062 21.39,0 33.98,-16.703 33.98,-37.941 v -2.781 h -57.27 c 0.88,-13.329 10.25,-24.469 25.49,-24.469 8.05,0 16.26,3.23 21.82,8.941 l 5.28,-7.183 c -7.03,-7.028 -16.56,-10.84 -28.13,-10.84 -20.95,0 -36.03,15.09 -36.03,37.211" /><path
         id="path570"
         style="fill:#141514;fill-opacity:1;fill-rule:nonzero;stroke:none"
         d="m 3185.23,199.852 5.71,7.91 c 4.69,-5.422 13.63,-10.102 23.29,-10.102 10.84,0 16.7,5.121 16.7,12.149 0,17.14 -43.8,6.601 -43.8,32.82 0,10.98 9.53,20.363 26.37,20.363 12.01,0 20.51,-4.543 26.22,-10.262 l -5.13,-7.609 c -4.24,5.117 -12.01,8.93 -21.09,8.93 -9.67,0 -15.67,-4.832 -15.67,-11.129 0,-15.531 43.79,-5.27 43.79,-32.813 0,-11.867 -9.52,-21.39 -27.83,-21.39 -11.57,0 -21.38,3.523 -28.56,11.133" /><path
         id="path572"
         style="fill:#141514;fill-opacity:1;fill-rule:nonzero;stroke:none"
         d="m 3255.83,190.48 v 70.75 h 10.99 v -70.75 z m -1.9,88.18 c 0,4.102 3.37,7.469 7.32,7.469 4.1,0 7.47,-3.367 7.47,-7.469 0,-4.101 -3.37,-7.32 -7.47,-7.32 -3.95,0 -7.32,3.219 -7.32,7.32" /><path
         id="path574"
         style="fill:#141514;fill-opacity:1;fill-rule:nonzero;stroke:none"
         d="m 3336.25,210.84 v 30.91 c -3.81,6.148 -12.31,11.422 -21.09,11.422 -14.22,0 -22.71,-11.281 -22.71,-26.953 0,-15.528 8.49,-26.949 22.71,-26.949 8.78,0 17.28,5.421 21.09,11.57 z m -51.27,-38.531 5.57,8.211 c 5.86,-7.028 12.89,-9.668 22.99,-9.668 11.72,0 22.71,5.707 22.71,21.238 v 10.109 c -5.13,-7.179 -13.77,-12.597 -23.74,-12.597 -18.45,0 -31.49,13.769 -31.49,36.617 0,22.711 12.89,36.773 31.49,36.773 9.53,0 18.03,-4.691 23.74,-12.453 v 10.691 h 10.98 v -68.699 c 0,-23.441 -16.4,-30.761 -33.69,-30.761 -12.01,0 -20.21,2.339 -28.56,10.539" /><path
         id="path576"
         style="fill:#141514;fill-opacity:1;fill-rule:nonzero;stroke:none"
         d="m 3413.29,190.48 v 46.29 c 0,12.449 -6.29,16.402 -15.81,16.402 -8.65,0 -16.85,-5.274 -20.95,-10.981 V 190.48 h -10.99 v 70.75 h 10.99 v -10.25 c 4.98,5.86 14.64,12.012 25.19,12.012 14.79,0 22.56,-7.472 22.56,-22.851 V 190.48 h -10.99" /><path
         id="path578"
         style="fill:#141514;fill-opacity:1;fill-rule:nonzero;stroke:none"
         d="m 3473.2,253.91 c -15.08,0 -22.56,-12.75 -23.14,-23.59 h 46.43 c -0.15,10.551 -7.18,23.59 -23.29,23.59 z m -34.71,-27.98 c 0,20.511 14.64,37.062 34.86,37.062 21.38,0 33.98,-16.703 33.98,-37.941 v -2.781 h -57.27 c 0.88,-13.329 10.25,-24.469 25.49,-24.469 8.05,0 16.25,3.23 21.82,8.941 l 5.27,-7.183 c -7.02,-7.028 -16.55,-10.84 -28.12,-10.84 -20.95,0 -36.03,15.09 -36.03,37.211" /><path
         id="path580"
         style="fill:#141514;fill-opacity:1;fill-rule:nonzero;stroke:none"
         d="m 3572.66,209.672 v 32.078 c -3.96,6.148 -12.45,11.422 -21.24,11.422 -14.21,0 -22.7,-11.711 -22.7,-27.391 0,-15.672 8.49,-27.242 22.7,-27.242 8.79,0 17.28,4.981 21.24,11.133 z m 0,-19.192 v 10.551 c -5.27,-7.179 -13.91,-12.312 -23.88,-12.312 -18.45,0 -31.49,14.062 -31.49,37.062 0,22.559 12.89,37.211 31.49,37.211 9.52,0 18.17,-4.691 23.88,-12.453 v 37.641 h 10.98 v -97.7 h -10.98" /><path
         id="path582"
         style="fill:#141514;fill-opacity:1;fill-rule:nonzero;stroke:none"
         d="m 3668.16,198.539 c 14.35,0 22.85,11.57 22.85,27.242 0,15.68 -8.5,27.391 -22.85,27.391 -8.64,0 -17.29,-5.274 -21.09,-11.422 v -32.078 c 3.8,-6.152 12.45,-11.133 21.09,-11.133 z m -32.08,-8.059 v 97.7 h 10.99 v -37.641 c 5.71,7.762 14.2,12.453 23.87,12.453 18.46,0 31.5,-14.652 31.5,-37.211 0,-23 -13.04,-37.062 -31.5,-37.062 -9.96,0 -18.6,5.133 -23.87,12.312 V 190.48 h -10.99" /><path
         id="path584"
         style="fill:#141514;fill-opacity:1;fill-rule:nonzero;stroke:none"
         d="m 3714.44,172.75 c 1.61,-0.73 4.26,-1.168 6.01,-1.168 4.83,0 8.06,1.609 10.55,7.469 l 4.68,10.699 -29.59,71.48 h 11.87 l 23.58,-58.011 23.44,58.011 h 12.01 l -35.45,-85.109 c -4.25,-10.25 -11.42,-14.211 -20.8,-14.351 -2.34,0 -6,0.441 -8.05,1.019 l 1.75,9.961" /></g></g></svg>